<svg xmlns="http://www.w3.org/2000/svg" xmlns:xlink="http://www.w3.org/1999/xlink" viewBox="0 0 739 572.1"><defs><linearGradient id="a" x1="255.5" y1="163.82" x2="255.5" y2="540.24" gradientTransform="matrix(1, 0, 0, -1, 0, 574)" gradientUnits="userSpaceOnUse"><stop offset="0" stop-color="#2ccdfd"/><stop offset="1" stop-color="#2ccdfd" stop-opacity="0"/></linearGradient><linearGradient id="b" x1="253.5" y1="169.62" x2="253.5" y2="540.5" xlink:href="#a"/><linearGradient id="c" x1="255.05" y1="198.6" x2="255.05" y2="543.78" xlink:href="#a"/><linearGradient id="d" x1="255.15" y1="134.52" x2="255.15" y2="244.02" xlink:href="#a"/><clipPath id="e" transform="translate(114 13.1)"><path d="M-21,330.9v-8.2c0,2.7,1.8,5.4,5.4,7.5v8.2C-19.2,336.3-21,333.6-21,330.9Z" style="fill:none"/></clipPath><linearGradient id="f" x1="-26.16" y1="365.85" x2="-16.08" y2="365.85" gradientTransform="translate(0 -35.2)" gradientUnits="userSpaceOnUse"><stop offset="0" stop-color="#7c87a3"/><stop offset="1" stop-color="#4d5e81"/></linearGradient><linearGradient id="g" x1="99.87" y1="481.52" x2="429.87" y2="286.52" gradientTransform="translate(0 -35.2)" gradientUnits="userSpaceOnUse"><stop offset="0" stop-color="#d2d6df"/><stop offset="1" stop-color="#fff"/></linearGradient><linearGradient id="h" x1="520.51" y1="490.85" x2="277.48" y2="490.85" gradientTransform="translate(114 -22.1)" gradientUnits="userSpaceOnUse"><stop offset="0" stop-color="#f3f4f7"/><stop offset="1" stop-color="#7c87a3"/></linearGradient><linearGradient id="i" x1="320.18" y1="460.05" x2="-46.67" y2="460.05" gradientTransform="translate(114 -22.1)" xlink:href="#f"/><linearGradient id="j" x1="332.26" y1="552.1" x2="288.78" y2="552.1" gradientTransform="translate(0 -35.2)" gradientUnits="userSpaceOnUse"><stop offset="0" stop-color="#c3c9d4"/><stop offset="1" stop-color="#7c87a3"/></linearGradient><linearGradient id="k" x1="256.7" y1="549.6" x2="256.7" y2="228.1" gradientTransform="translate(0 -35.2)" gradientUnits="userSpaceOnUse"><stop offset="0" stop-color="#1e63fb"/><stop offset="1" stop-color="#c0d5fd"/></linearGradient><linearGradient id="l" x1="256.7" y1="552.16" x2="256.7" y2="249.13" gradientTransform="translate(0 -35.2)" gradientUnits="userSpaceOnUse"><stop offset="0" stop-color="#2256c6"/><stop offset="1" stop-color="#97b9fd"/></linearGradient><linearGradient id="m" x1="246.49" y1="518.61" x2="246.49" y2="320.25" gradientTransform="translate(0 -35.2)" gradientUnits="userSpaceOnUse"><stop offset="0" stop-color="#1e63fb"/><stop offset="1" stop-color="#97b9fd" stop-opacity="0.5"/></linearGradient><clipPath id="n" transform="translate(114 13.1)"><path d="M-21,286.7v-8.2c0,2.7,1.8,5.4,5.4,7.5v8.2C-19.2,292.2-21,289.5-21,286.7Z" style="fill:none"/></clipPath><linearGradient id="o" x1="-26.16" y1="321.65" x2="-16.08" y2="321.65" xlink:href="#f"/><linearGradient id="p" x1="99.83" y1="437.34" x2="429.83" y2="242.34" xlink:href="#g"/><linearGradient id="q" x1="520.51" y1="446.65" x2="277.48" y2="446.65" xlink:href="#h"/><linearGradient id="r" x1="320.18" y1="415.85" x2="-46.67" y2="415.85" gradientTransform="translate(114 -22.1)" xlink:href="#f"/><linearGradient id="s" x1="332.26" y1="507.92" x2="288.78" y2="507.92" xlink:href="#j"/><linearGradient id="t" x1="256.7" y1="505.4" x2="256.7" y2="183.9" xlink:href="#k"/><linearGradient id="u" x1="256.7" y1="508.01" x2="256.7" y2="204.98" xlink:href="#l"/><linearGradient id="v" x1="246.49" y1="474.49" x2="246.49" y2="276.13" xlink:href="#m"/><clipPath id="w" transform="translate(114 13.1)"><path d="M-21,232.9v-8.2c0,2.7,1.8,5.4,5.4,7.5v8.2C-19.2,238.3-21,235.6-21,232.9Z" style="fill:none"/></clipPath><linearGradient id="x" x1="-26.16" y1="267.75" x2="-16.08" y2="267.75" xlink:href="#f"/><linearGradient id="y" x1="99.84" y1="383.44" x2="429.84" y2="188.44" xlink:href="#g"/><linearGradient id="z" x1="520.51" y1="392.85" x2="277.48" y2="392.85" xlink:href="#h"/><linearGradient id="aa" x1="320.18" y1="362" x2="-46.67" y2="362" gradientTransform="translate(114 -22.1)" xlink:href="#f"/><linearGradient id="ab" x1="332.26" y1="454.02" x2="288.78" y2="454.02" xlink:href="#j"/><linearGradient id="ac" x1="256.7" y1="451.6" x2="256.7" y2="130" xlink:href="#k"/><linearGradient id="ad" x1="256.7" y1="454.05" x2="256.7" y2="151.02" xlink:href="#l"/><linearGradient id="ae" x1="246.49" y1="420.57" x2="246.49" y2="222.2" xlink:href="#m"/><clipPath id="af" transform="translate(114 13.1)"><path d="M-21,178.8v-8.2c0,2.7,1.8,5.4,5.4,7.5v8.2C-19.2,184.2-21,181.5-21,178.8Z" style="fill:none"/></clipPath><linearGradient id="ag" x1="-26.16" y1="213.75" x2="-16.08" y2="213.75" xlink:href="#f"/><linearGradient id="ah" x1="99.85" y1="329.44" x2="429.85" y2="134.44" xlink:href="#g"/><linearGradient id="ai" x1="520.51" y1="338.75" x2="277.48" y2="338.75" xlink:href="#h"/><linearGradient id="aj" x1="320.18" y1="307.95" x2="-46.67" y2="307.95" gradientTransform="translate(114 -22.1)" xlink:href="#f"/><linearGradient id="ak" x1="332.26" y1="400" x2="288.78" y2="400" xlink:href="#j"/><linearGradient id="al" x1="256.7" y1="397.5" x2="256.7" y2="76" xlink:href="#k"/><linearGradient id="am" x1="256.7" y1="400.11" x2="256.7" y2="97.08" xlink:href="#l"/><linearGradient id="an" x1="246.49" y1="366.56" x2="246.49" y2="168.2" xlink:href="#m"/><clipPath id="ao" transform="translate(114 13.1)"><path d="M-21,124.9v-8.2c0,2.7,1.8,5.4,5.4,7.5v8.2C-19.2,130.4-21,127.6-21,124.9Z" style="fill:none"/></clipPath><linearGradient id="ap" x1="-26.16" y1="159.8" x2="-16.08" y2="159.8" xlink:href="#f"/><linearGradient id="aq" x1="256.7" y1="419.14" x2="256.7" y2="82.07" gradientTransform="translate(0 -35.2)" gradientUnits="userSpaceOnUse"><stop offset="0" stop-color="#dbdfe6"/><stop offset="1" stop-color="#fff"/></linearGradient><linearGradient id="ar" x1="520.51" y1="284.85" x2="277.48" y2="284.85" xlink:href="#h"/><linearGradient id="as" x1="320.18" y1="254.05" x2="-46.67" y2="254.05" gradientTransform="translate(114 -22.1)" xlink:href="#f"/><linearGradient id="at" x1="332.26" y1="346.12" x2="288.78" y2="346.12" xlink:href="#j"/><linearGradient id="au" x1="256.7" y1="343.6" x2="256.7" y2="22.1" xlink:href="#k"/><linearGradient id="av" x1="256.7" y1="346.14" x2="256.7" y2="43.11" xlink:href="#l"/><linearGradient id="aw" x1="275.97" y1="279.22" x2="305.97" y2="140.22" gradientTransform="translate(114 -22.1)" gradientUnits="userSpaceOnUse"><stop offset="0" stop-color="#c0d5fd"/><stop offset="1" stop-color="#f3f4f7"/></linearGradient><linearGradient id="ax" x1="306.26" y1="285.76" x2="336.26" y2="146.76" xlink:href="#aw"/><linearGradient id="ay" x1="221.13" y1="267.38" x2="251.13" y2="128.38" xlink:href="#aw"/><linearGradient id="az" x1="312.04" y1="287" x2="342.04" y2="148" xlink:href="#aw"/><linearGradient id="ba" x1="321.42" y1="289.03" x2="351.42" y2="150.03" xlink:href="#aw"/><linearGradient id="bb" x1="236.29" y1="270.65" x2="266.29" y2="131.65" xlink:href="#aw"/><linearGradient id="bc" x1="372.65" y1="300.08" x2="402.65" y2="161.08" xlink:href="#aw"/><linearGradient id="bd" x1="291.11" y1="282.49" x2="321.11" y2="143.49" xlink:href="#aw"/><linearGradient id="be" x1="205.99" y1="264.11" x2="235.99" y2="125.11" xlink:href="#aw"/><linearGradient id="bf" x1="327.2" y1="290.27" x2="357.2" y2="151.27" xlink:href="#aw"/><linearGradient id="bg" x1="342.35" y1="293.54" x2="372.35" y2="154.54" xlink:href="#aw"/><linearGradient id="bh" x1="357.5" y1="296.81" x2="387.5" y2="157.81" xlink:href="#aw"/></defs><title>wb-feature-endless</title><path d="M310.8,559a34.92,34.92,0,0,1-16.9-4.1l-313.5-181a18.93,18.93,0,0,1-7.1-6.6l-1.5-.1-0.7-5.6c0-.3-0.1-0.5-0.1-0.8L-114,16.4H625L542.3,419.8a13.51,13.51,0,0,1-.5,5.3l-0.4,4.5-1.5-.3a19.56,19.56,0,0,1-6.8,6.2L327.7,554.8A33.87,33.87,0,0,1,310.8,559Z" transform="translate(114 13.1)" style="opacity:0.07000000029802322;isolation:isolate;fill:url(#a)"/><path d="M534.3,419.9L593,16.4H-86l65,343.4h0c0.1,2.6,1.9,5.2,5.4,7.2L297.9,548c7.1,4.1,18.7,4.1,25.8,0L529.1,428.7c4-2.5,5.8-5.7,5.2-8.8h0Z" transform="translate(114 13.1)" style="opacity:0.07000000029802322;isolation:isolate;fill:url(#b)"/><path d="M310.8,543a18,18,0,0,1-8.9-2L-11.6,360a4.68,4.68,0,0,1-1.4-1.1l-0.3-6.6h-0.5l-39.5-328H563.4l-36.1,386-0.9,10.4a5.81,5.81,0,0,1-1.3,1L319.7,541A19.2,19.2,0,0,1,310.8,543Z" transform="translate(114 13.1)" style="opacity:0.07000000029802322;isolation:isolate;fill:url(#c)"/><path d="M310.8,535a11.7,11.7,0,0,1-4.9-.9L-5.2,354.4-5.7,345l-1-.1L-44.3,32.4H554.6L519.3,409.6l-0.5,6.6-203,117.9A12.77,12.77,0,0,1,310.8,535Z" transform="translate(114 13.1)" style="opacity:0.12999999523162842;isolation:isolate;fill:url(#d)"/><g style="isolation:isolate"><path d="M534.3,385a8.59,8.59,0,0,1-3.6,5.8,1.8,1.8,0,0,0-1.6,2.4V400a10.17,10.17,0,0,0,4.7-4.9,9.09,9.09,0,0,0,.6-3.6v-7.1a1.08,1.08,0,0,1-.1.6C534.3,385.2,534.4,384.8,534.3,385Z" transform="translate(114 13.1)" style="fill:#f3f4f7"/><g style="isolation:isolate"><g style="clip-path:url(#e)"><g style="isolation:isolate"><path d="M-15.6,330.3v8.2c-3.6-2.1-5.4-4.8-5.4-7.5v-8.2c0,2.7,1.8,5.4,5.4,7.5" transform="translate(114 13.1)" style="fill:url(#f)"/></g></g></g><path d="M529,377c7.2,4.1,7.2,10.8.1,15L323.7,511.3c-7.1,4.1-18.7,4.1-25.8,0l-313.5-181c-7.2-4.1-7.2-10.8-.1-15L189.7,196c7.1-4.1,18.7-4.1,25.8,0Z" transform="translate(114 13.1)" style="fill:url(#g)"/><polygon points="643.1 405 643.1 413.2 437.7 532.5 437.7 524.4 643.1 405" style="fill:url(#h)"/><polygon points="411.9 524.4 411.9 532.5 98.4 351.5 98.4 343.4 411.9 524.4" style="fill:url(#i)"/><path d="M322,520.3c0.6-.3,1.2-0.6,1.7-0.9v-8.2a26.11,26.11,0,0,1-13.1,3.1,25.68,25.68,0,0,1-12.7-3.1v8.2C304.8,523.4,314.7,523.6,322,520.3Z" transform="translate(114 13.1)" style="fill:url(#j)"/><g style="opacity:0.5"><path d="M202.6,195.9a23.43,23.43,0,0,1,11.4,2.7l313.5,181c2.5,1.4,3.9,3.2,3.9,4.9s-1.4,3.4-3.8,4.8L322.2,508.7a25.42,25.42,0,0,1-22.8,0l-313.5-181c-2.5-1.4-3.9-3.2-3.9-4.9s1.4-3.4,3.8-4.9L191.2,198.6a23.71,23.71,0,0,1,11.4-2.7m0-3a25.93,25.93,0,0,0-12.9,3.1L-15.7,315.3c-7.1,4.1-7.1,10.8.1,15l313.5,181a26.19,26.19,0,0,0,12.9,3.1,25.93,25.93,0,0,0,12.9-3.1L529.1,392c7.1-4.1,7.1-10.8-.1-15L215.5,196a25.93,25.93,0,0,0-12.9-3.1h0Z" transform="translate(114 13.1)" style="fill:url(#k)"/></g><path d="M503.4,380.5c3.8,2.2,3.8,5.8,0,7.9l-185.9,108a15,15,0,0,1-13.7,0L10,326.8c-3.8-2.2-3.8-5.8,0-7.9l185.9-108a15,15,0,0,1,13.7,0Z" transform="translate(114 13.1)" style="fill:url(#l)"/></g><g style="opacity:0.15000000596046448"><path d="M303.3,509L508.7,389.7c3.6-2.1,5.3-4.8,5.3-7.5a6.45,6.45,0,0,0-.3-2,11.21,11.21,0,0,0-5-5.5L195.2,193.8a19.19,19.19,0,0,0-5.5,2.2L-15.7,315.3c-7.1,4.1-7.1,10.8.1,15L297.8,511.2A19.19,19.19,0,0,0,303.3,509Z" transform="translate(114 13.1)" style="fill:url(#m)"/></g><g style="isolation:isolate"><path d="M534.3,340.9a8.59,8.59,0,0,1-3.6,5.8,1.8,1.8,0,0,0-1.6,2.4v6.8a10.17,10.17,0,0,0,4.7-4.9,9.09,9.09,0,0,0,.6-3.6v-7.1a1.27,1.27,0,0,1-.1.6C534.3,341,534.4,340.7,534.3,340.9Z" transform="translate(114 13.1)" style="fill:#f3f4f7"/><g style="isolation:isolate"><g style="clip-path:url(#n)"><g style="isolation:isolate"><path d="M-15.6,286.1v8.2c-3.6-2.1-5.4-4.8-5.4-7.5v-8.2c0,2.7,1.8,5.4,5.4,7.5" transform="translate(114 13.1)" style="fill:url(#o)"/></g></g></g><path d="M529,332.8c7.2,4.1,7.2,10.8.1,15L323.7,467.1c-7.1,4.1-18.7,4.1-25.8,0l-313.5-181c-7.2-4.1-7.2-10.8-.1-15L189.7,151.8c7.1-4.1,18.7-4.1,25.8,0Z" transform="translate(114 13.1)" style="fill:url(#p)"/><polygon points="643.1 360.8 643.1 369 437.7 488.3 437.7 480.2 643.1 360.8" style="fill:url(#q)"/><polygon points="411.9 480.2 411.9 488.3 98.4 307.4 98.4 299.2 411.9 480.2" style="fill:url(#r)"/><path d="M322,476.1c0.6-.3,1.2-0.6,1.7-0.9V467a26.11,26.11,0,0,1-13.1,3.1,25.68,25.68,0,0,1-12.7-3.1v8.2C304.8,479.3,314.7,479.4,322,476.1Z" transform="translate(114 13.1)" style="fill:url(#s)"/><g style="opacity:0.5"><path d="M202.6,151.7a23.43,23.43,0,0,1,11.4,2.7l313.5,181c2.5,1.4,3.9,3.2,3.9,4.9s-1.4,3.4-3.8,4.8L322.2,464.5a25.42,25.42,0,0,1-22.8,0l-313.5-181c-2.5-1.4-3.9-3.2-3.9-4.9s1.4-3.4,3.8-4.9L191.2,154.4a23.71,23.71,0,0,1,11.4-2.7m0-3a25.93,25.93,0,0,0-12.9,3.1L-15.7,271.1c-7.1,4.1-7.1,10.8.1,15l313.5,181a28.39,28.39,0,0,0,25.8,0L529.1,347.8c7.1-4.1,7.1-10.8-.1-15l-313.5-181a25.93,25.93,0,0,0-12.9-3.1h0Z" transform="translate(114 13.1)" style="fill:url(#t)"/></g><path d="M503.4,336.3c3.8,2.2,3.8,5.8,0,7.9l-185.9,108a15,15,0,0,1-13.7,0L10,282.6c-3.8-2.2-3.8-5.8,0-7.9l185.9-108a15,15,0,0,1,13.7,0Z" transform="translate(114 13.1)" style="fill:url(#u)"/></g><g style="opacity:0.15000000596046448"><path d="M303.3,464.9L508.7,345.6c3.6-2.1,5.3-4.8,5.3-7.5a6.45,6.45,0,0,0-.3-2,11.21,11.21,0,0,0-5-5.5l-313.5-181a19.19,19.19,0,0,0-5.5,2.2L-15.7,271.1c-7.1,4.1-7.1,10.8.1,15L297.8,467A22.45,22.45,0,0,0,303.3,464.9Z" transform="translate(114 13.1)" style="fill:url(#v)"/></g><g style="isolation:isolate"><path d="M534.3,287a8.59,8.59,0,0,1-3.6,5.8,1.8,1.8,0,0,0-1.6,2.4V302a10.17,10.17,0,0,0,4.7-4.9,9.09,9.09,0,0,0,.6-3.6v-7.1a1.27,1.27,0,0,1-.1.6C534.3,287.2,534.4,286.8,534.3,287Z" transform="translate(114 13.1)" style="fill:#f3f4f7"/><g style="isolation:isolate"><g style="clip-path:url(#w)"><g style="isolation:isolate"><path d="M-15.6,232.2v8.2c-3.6-2.1-5.4-4.8-5.4-7.5v-8.2c0,2.7,1.8,5.5,5.4,7.5" transform="translate(114 13.1)" style="fill:url(#x)"/></g></g></g><path d="M529,278.9c7.2,4.1,7.2,10.8.1,15L323.7,413.2c-7.1,4.1-18.7,4.1-25.8,0l-313.5-181c-7.2-4.1-7.2-10.8-.1-15L189.7,97.9c7.1-4.1,18.7-4.1,25.8,0Z" transform="translate(114 13.1)" style="fill:url(#y)"/><polygon points="643.1 307 643.1 315.1 437.7 434.5 437.7 426.3 643.1 307" style="fill:url(#z)"/><polygon points="411.9 426.3 411.9 434.5 98.4 253.5 98.4 245.3 411.9 426.3" style="fill:url(#aa)"/><path d="M322,422.2c0.6-.3,1.2-0.6,1.7-0.9v-8.2a26.11,26.11,0,0,1-13.1,3.1,25.68,25.68,0,0,1-12.7-3.1v8.2C304.8,425.4,314.7,425.5,322,422.2Z" transform="translate(114 13.1)" style="fill:url(#ab)"/><g style="opacity:0.5"><path d="M202.6,97.8a23.43,23.43,0,0,1,11.4,2.7l313.5,181c2.5,1.4,3.9,3.2,3.9,4.9s-1.4,3.4-3.8,4.8L322.2,410.6a25.42,25.42,0,0,1-22.8,0l-313.5-181c-2.5-1.4-3.9-3.2-3.9-4.9s1.4-3.4,3.8-4.9L191.2,100.5a23.71,23.71,0,0,1,11.4-2.7m0-3a25.93,25.93,0,0,0-12.9,3.1L-15.7,217.3c-7.1,4.1-7.1,10.8.1,15l313.5,181a28.39,28.39,0,0,0,25.8,0L529.1,294c7.1-4.1,7.1-10.8-.1-15L215.5,98a26,26,0,0,0-12.9-3.2h0Z" transform="translate(114 13.1)" style="fill:url(#ac)"/></g><path d="M503.4,282.4c3.8,2.2,3.8,5.8,0,7.9l-185.9,108a15,15,0,0,1-13.7,0L10,228.7c-3.8-2.2-3.8-5.8,0-7.9l185.9-108a15,15,0,0,1,13.7,0Z" transform="translate(114 13.1)" style="fill:url(#ad)"/></g><g style="opacity:0.15000000596046448"><path d="M303.3,411L508.7,291.7c3.6-2.1,5.3-4.8,5.3-7.5a6.45,6.45,0,0,0-.3-2,11.21,11.21,0,0,0-5-5.5L195.2,95.8a19.19,19.19,0,0,0-5.5,2.2L-15.7,217.3c-7.1,4.1-7.1,10.8.1,15L297.8,413.2A22.58,22.58,0,0,0,303.3,411Z" transform="translate(114 13.1)" style="fill:url(#ae)"/></g><g style="isolation:isolate"><path d="M534.3,232.9a8.59,8.59,0,0,1-3.6,5.8,4.81,4.81,0,0,0-1.6,1.2,4.82,4.82,0,0,0,0,1.2v6.8a10.17,10.17,0,0,0,4.7-4.9,9.09,9.09,0,0,0,.6-3.6v-7.1a1.08,1.08,0,0,1-.1.6C534.3,233.1,534.4,232.7,534.3,232.9Z" transform="translate(114 13.1)" style="fill:#f3f4f7"/><g style="isolation:isolate"><g style="clip-path:url(#af)"><g style="isolation:isolate"><path d="M-15.6,178.2v8.2c-3.6-2.1-5.4-4.8-5.4-7.5v-8.2c0,2.7,1.8,5.4,5.4,7.5" transform="translate(114 13.1)" style="fill:url(#ag)"/></g></g></g><path d="M529,224.9c7.2,4.1,7.2,10.8.1,15L323.7,359.2c-7.1,4.1-18.7,4.1-25.8,0l-313.5-181c-7.2-4.1-7.2-10.8-.1-15L189.7,43.9c7.1-4.1,18.7-4.1,25.8,0Z" transform="translate(114 13.1)" style="fill:url(#ah)"/><polygon points="643.1 252.9 643.1 261.1 437.7 380.4 437.7 372.3 643.1 252.9" style="fill:url(#ai)"/><polygon points="411.9 372.3 411.9 380.4 98.4 199.4 98.4 191.3 411.9 372.3" style="fill:url(#aj)"/><path d="M322,368.2c0.6-.3,1.2-0.6,1.7-0.9v-8.2a26.11,26.11,0,0,1-13.1,3.1,25.68,25.68,0,0,1-12.7-3.1v8.2C304.8,371.3,314.7,371.5,322,368.2Z" transform="translate(114 13.1)" style="fill:url(#ak)"/><g style="opacity:0.5"><path d="M202.6,43.8A23.43,23.43,0,0,1,214,46.5l313.5,181c2.5,1.4,3.9,3.2,3.9,4.9s-1.4,3.4-3.8,4.8L322.2,356.6a25.42,25.42,0,0,1-22.8,0l-313.5-181c-2.5-1.5-3.9-3.2-3.9-4.9s1.4-3.4,3.8-4.9L191.2,46.5a22.63,22.63,0,0,1,11.4-2.7m0-3a25.93,25.93,0,0,0-12.9,3.1L-15.7,163.2c-7.1,4.1-7.1,10.8.1,15l313.5,181a28.39,28.39,0,0,0,25.8,0L529.1,239.9c7.1-4.1,7.1-10.8-.1-15L215.5,43.9a25.93,25.93,0,0,0-12.9-3.1h0Z" transform="translate(114 13.1)" style="fill:url(#al)"/></g><path d="M503.4,228.4c3.8,2.2,3.8,5.8,0,7.9l-185.9,108a15,15,0,0,1-13.7,0L10,174.7c-3.8-2.2-3.8-5.8,0-7.9l185.9-108a15,15,0,0,1,13.7,0Z" transform="translate(114 13.1)" style="fill:url(#am)"/></g><g style="opacity:0.15000000596046448"><path d="M303.3,356.9L508.7,237.6c3.6-2.1,5.3-4.8,5.3-7.5a6.45,6.45,0,0,0-.3-2,11.21,11.21,0,0,0-5-5.5L195.2,41.7a19.19,19.19,0,0,0-5.5,2.2L-15.7,163.2c-7.1,4.1-7.1,10.8.1,15L297.8,359.1A19.19,19.19,0,0,0,303.3,356.9Z" transform="translate(114 13.1)" style="fill:url(#an)"/></g><g style="isolation:isolate"><path d="M534.3,179.1a8.59,8.59,0,0,1-3.6,5.8,4.81,4.81,0,0,0-1.6,1.2,4.82,4.82,0,0,0,0,1.2v6.8a10.17,10.17,0,0,0,4.7-4.9,9.09,9.09,0,0,0,.6-3.6v-7.1a1.27,1.27,0,0,1-.1.6C534.3,179.2,534.4,178.9,534.3,179.1Z" transform="translate(114 13.1)" style="fill:#f3f4f7"/><g style="isolation:isolate"><g style="clip-path:url(#ao)"><g style="isolation:isolate"><path d="M-15.6,124.3v8.2c-3.6-2.1-5.4-4.9-5.4-7.6v-8.2c0,2.8,1.8,5.5,5.4,7.6" transform="translate(114 13.1)" style="fill:url(#ap)"/></g></g></g><path d="M529,171c7.2,4.1,7.2,10.8.1,15L323.7,305.3c-7.1,4.1-18.7,4.1-25.8,0l-313.5-181c-7.2-4.1-7.2-10.8-.1-15L189.7-10c7.1-4.1,18.7-4.1,25.8,0Z" transform="translate(114 13.1)" style="fill:url(#aq)"/><polygon points="643.1 199 643.1 207.2 437.7 326.5 437.7 318.4 643.1 199" style="fill:url(#ar)"/><polygon points="411.9 318.4 411.9 326.5 98.4 145.6 98.4 137.4 411.9 318.4" style="fill:url(#as)"/><path d="M322,314.3c0.6-.3,1.2-0.6,1.7-0.9v-8.2a26.11,26.11,0,0,1-13.1,3.1,25.68,25.68,0,0,1-12.7-3.1v8.2C304.8,317.5,314.7,317.6,322,314.3Z" transform="translate(114 13.1)" style="fill:url(#at)"/><g style="opacity:0.5"><path d="M202.6-10.1A23.43,23.43,0,0,1,214-7.4l313.5,181c2.5,1.4,3.9,3.2,3.9,4.9s-1.4,3.4-3.8,4.8L322.2,302.7a25.42,25.42,0,0,1-22.8,0l-313.5-181c-2.5-1.4-3.9-3.2-3.9-4.9s1.4-3.4,3.8-4.9L191.2-7.4a23.71,23.71,0,0,1,11.4-2.7m0-3A25.93,25.93,0,0,0,189.7-10L-15.7,109.3c-7.1,4.1-7.1,10.8.1,15l313.5,181a28.39,28.39,0,0,0,25.8,0L529.1,185.9c7.1-4.1,7.1-10.8-.1-15L215.5-10a25.93,25.93,0,0,0-12.9-3.1h0Z" transform="translate(114 13.1)" style="fill:url(#au)"/></g><path d="M503.4,174.5c3.8,2.2,3.8,5.8,0,7.9l-185.9,108a15,15,0,0,1-13.7,0L10,120.8c-3.8-2.2-3.8-5.8,0-7.9L195.9,4.9a15,15,0,0,1,13.7,0Z" transform="translate(114 13.1)" style="fill:url(#av)"/><path d="M230,173.4l50.6,29.2-50.3,29.2-50.6-29.2Z" transform="translate(114 13.1)" style="fill:#fff"/><polygon points="381.8 215.7 344.2 237.5 306.4 215.7 344 193.8 381.8 215.7" style="fill:#fd9ab6"/><path d="M203.4,17.5l92.5,53.4L124.3,170.6,31.8,117.2Z" transform="translate(114 13.1)" style="fill:#fff"/><polygon points="397.2 84 238.2 176.3 158.5 130.3 317.4 37.9 397.2 84" style="fill:#65c492"/><g style="opacity:0.800000011920929"><polygon points="473.3 120.6 360.5 186.2 352.4 181.6 465.3 116 473.3 120.6" style="fill:url(#aw)"/><polygon points="501.5 136.9 388.7 202.5 380.6 197.8 493.5 132.2 501.5 136.9" style="fill:url(#ax)"/><polygon points="445.1 104.3 273.5 204 265.5 199.4 437.1 99.7 445.1 104.3" style="fill:url(#ay)"/><polygon points="529.7 153.2 358.1 252.9 350.1 248.2 521.7 148.5 529.7 153.2" style="fill:url(#az)"/><polygon points="515.6 145 402.8 210.6 394.7 206 507.6 140.4 515.6 145" style="fill:url(#ba)"/><polygon points="459.2 112.5 287.6 212.2 279.6 207.5 451.2 107.8 459.2 112.5" style="fill:url(#bb)"/><polygon points="586.1 185.7 414.6 285.5 406.5 280.8 578.1 181.1 586.1 185.7" style="fill:url(#bc)"/><polygon points="487.4 128.7 374.6 194.3 366.5 189.7 479.4 124.1 487.4 128.7" style="fill:url(#bd)"/><polygon points="431 96.2 259.4 195.9 251.4 191.3 423 91.5 431 96.2" style="fill:url(#be)"/><polygon points="543.8 161.3 372.2 261 364.2 256.4 535.8 156.7 543.8 161.3" style="fill:url(#bf)"/><polygon points="557.9 169.5 386.3 269.2 378.3 264.5 549.9 164.8 557.9 169.5" style="fill:url(#bg)"/><polygon points="572 177.6 400.4 277.3 392.4 272.7 564 173 572 177.6" style="fill:url(#bh)"/></g></g></svg>