<svg xmlns="http://www.w3.org/2000/svg" xmlns:xlink="http://www.w3.org/1999/xlink" viewBox="0 0 598.41 550.87"><defs><linearGradient id="a" x1="527.87" y1="423.65" x2="50.71" y2="423.65" gradientTransform="translate(0 -36.8)" gradientUnits="userSpaceOnUse"><stop offset="0" stop-color="#293e69"/><stop offset="1" stop-color="#132858"/></linearGradient><clipPath id="b" transform="translate(0.01 3.3)"><path d="M0,247.5v-8.2c0,2.7,1.8,5.4,5.4,7.5V255C1.8,253,0,250.3,0,247.5Z" style="fill:none"/></clipPath><linearGradient id="c" x1="-5.14" y1="284.05" x2="4.93" y2="284.05" gradientTransform="translate(0 -36.8)" gradientUnits="userSpaceOnUse"><stop offset="0" stop-color="#7c87a3"/><stop offset="1" stop-color="#4d5e81"/></linearGradient><linearGradient id="d" x1="277.7" y1="543.38" x2="277.7" y2="206.31" gradientTransform="translate(0 -36.8)" gradientUnits="userSpaceOnUse"><stop offset="0" stop-color="#dbdfe6"/><stop offset="1" stop-color="#fff"/></linearGradient><linearGradient id="e" x1="541.52" y1="409.15" x2="298.49" y2="409.15" gradientTransform="translate(0.01 -33.5)" gradientUnits="userSpaceOnUse"><stop offset="0" stop-color="#f3f4f7"/><stop offset="1" stop-color="#7c87a3"/></linearGradient><linearGradient id="f" x1="341.19" y1="378.3" x2="-25.66" y2="378.3" gradientTransform="translate(0.01 -33.5)" xlink:href="#c"/><linearGradient id="g" x1="353.27" y1="470.32" x2="309.79" y2="470.32" gradientTransform="translate(0 -36.8)" gradientUnits="userSpaceOnUse"><stop offset="0" stop-color="#c3c9d4"/><stop offset="1" stop-color="#7c87a3"/></linearGradient><linearGradient id="h" x1="277.7" y1="467.9" x2="277.7" y2="146.3" gradientTransform="translate(0 -36.8)" gradientUnits="userSpaceOnUse"><stop offset="0" stop-color="#1e63fb"/><stop offset="1" stop-color="#c0d5fd"/></linearGradient><linearGradient id="i" x1="277.7" y1="470.38" x2="277.7" y2="167.35" gradientTransform="translate(0 -36.8)" gradientUnits="userSpaceOnUse"><stop offset="0" stop-color="#2256c6"/><stop offset="1" stop-color="#97b9fd"/></linearGradient><linearGradient id="j" x1="296.96" y1="403.45" x2="326.96" y2="264.45" gradientTransform="translate(0.01 -33.5)" gradientUnits="userSpaceOnUse"><stop offset="0" stop-color="#c0d5fd"/><stop offset="1" stop-color="#f3f4f7"/></linearGradient><linearGradient id="k" x1="327.27" y1="409.99" x2="357.27" y2="270.99" xlink:href="#j"/><linearGradient id="l" x1="242.13" y1="391.62" x2="272.13" y2="252.62" xlink:href="#j"/><linearGradient id="m" x1="333.09" y1="411.25" x2="363.09" y2="272.25" xlink:href="#j"/><linearGradient id="n" x1="342.41" y1="413.26" x2="372.41" y2="274.26" xlink:href="#j"/><linearGradient id="o" x1="257.29" y1="394.89" x2="287.29" y2="255.89" xlink:href="#j"/><linearGradient id="p" x1="312.11" y1="406.72" x2="342.11" y2="267.72" xlink:href="#j"/><linearGradient id="q" x1="226.98" y1="388.35" x2="256.98" y2="249.35" xlink:href="#j"/><linearGradient id="r" x1="348.24" y1="414.52" x2="378.24" y2="275.52" xlink:href="#j"/><linearGradient id="s" x1="363.39" y1="417.79" x2="393.39" y2="278.79" xlink:href="#j"/><linearGradient id="t" x1="147.91" y1="161.4" x2="370.99" y2="161.4" gradientTransform="translate(0.01 -33.5)" gradientUnits="userSpaceOnUse"><stop offset="0" stop-color="#97b9fd"/><stop offset="1" stop-color="#dfeafe"/></linearGradient><linearGradient id="u" x1="257.15" y1="81.66" x2="257.15" y2="236.18" gradientTransform="translate(0.01 -33.5)" gradientUnits="userSpaceOnUse"><stop offset="0" stop-color="#feb7cb"/><stop offset="1" stop-color="#fd759c"/></linearGradient><linearGradient id="v" x1="120.1" y1="289.3" x2="226.3" y2="289.3" gradientTransform="translate(0.01 -33.5)" gradientUnits="userSpaceOnUse"><stop offset="0" stop-color="#132858"/><stop offset="1" stop-color="#132858" stop-opacity="0.7"/></linearGradient><linearGradient id="w" x1="134.2" y1="297.45" x2="240.4" y2="297.45" xlink:href="#v"/><linearGradient id="x" x1="77.8" y1="264.85" x2="184" y2="264.85" xlink:href="#v"/><linearGradient id="y" x1="91.9" y1="273.05" x2="198.1" y2="273.05" xlink:href="#v"/><linearGradient id="z" x1="106" y1="281.15" x2="212.2" y2="281.15" xlink:href="#v"/><linearGradient id="aa" x1="235.2" y1="346.57" x2="404.2" y2="248.57" xlink:href="#v"/><linearGradient id="ab" x1="249.37" y1="371" x2="418.37" y2="273" xlink:href="#v"/><linearGradient id="ac" x1="221.03" y1="322.13" x2="390.03" y2="224.13" xlink:href="#v"/><linearGradient id="ad" x1="270.62" y1="407.64" x2="439.62" y2="309.64" xlink:href="#v"/><linearGradient id="ae" x1="277.7" y1="419.86" x2="446.7" y2="321.86" xlink:href="#v"/><linearGradient id="af" x1="291.88" y1="444.31" x2="460.88" y2="346.31" xlink:href="#v"/><linearGradient id="ag" x1="242.29" y1="358.78" x2="411.29" y2="260.78" xlink:href="#v"/><linearGradient id="ah" x1="213.97" y1="309.95" x2="382.97" y2="211.95" xlink:href="#v"/><linearGradient id="ai" x1="256.46" y1="383.22" x2="425.46" y2="285.22" xlink:href="#v"/><linearGradient id="aj" x1="228.12" y1="334.35" x2="397.12" y2="236.35" xlink:href="#v"/><linearGradient id="ak" x1="263.54" y1="395.44" x2="432.54" y2="297.44" xlink:href="#v"/><linearGradient id="al" x1="284.82" y1="432.13" x2="453.82" y2="334.13" xlink:href="#v"/><linearGradient id="am" x1="424.2" y1="301.35" x2="598.4" y2="301.35" xlink:href="#t"/><linearGradient id="an" x1="511.3" y1="253.41" x2="511.3" y2="333.47" gradientTransform="translate(0.01 -33.5)" gradientUnits="userSpaceOnUse"><stop offset="0" stop-color="#97b9fd"/><stop offset="1" stop-color="#4d84fa"/></linearGradient><linearGradient id="ao" x1="376.4" y1="410.55" x2="550.6" y2="410.55" xlink:href="#t"/><linearGradient id="ap" x1="463.5" y1="367.06" x2="463.5" y2="446.07" xlink:href="#u"/><linearGradient id="aq" x1="217.4" y1="449.25" x2="391.6" y2="449.25" xlink:href="#t"/><linearGradient id="ar" x1="304.5" y1="405.29" x2="304.5" y2="481.32" gradientTransform="translate(0.01 -33.5)" gradientUnits="userSpaceOnUse"><stop offset="0" stop-color="#c1fed6"/><stop offset="1" stop-color="#3eb596"/></linearGradient><linearGradient id="as" x1="0" y1="330.85" x2="143.5" y2="330.85" xlink:href="#t"/><linearGradient id="at" x1="71.75" y1="291.4" x2="71.75" y2="357.35" xlink:href="#an"/><linearGradient id="au" x1="206" y1="80.25" x2="349.5" y2="80.25" xlink:href="#t"/><linearGradient id="av" x1="277.7" y1="40.76" x2="277.7" y2="106.71" xlink:href="#ar"/></defs><title>wb-feature-customize</title><g style="opacity:0.10000000149011612"><path d="M550,410.2c7.2,4.1,7.2,10.8.1,15L344.7,544.5c-7.1,4.1-18.7,4.1-25.8,0L5.4,363.5c-7.2-4.1-7.2-10.8-.1-15L210.7,229.2c7.1-4.1,18.7-4.1,25.8,0Z" transform="translate(0.01 3.3)" style="fill:url(#a)"/></g><g style="isolation:isolate"><path d="M555.4,301.7a8.59,8.59,0,0,1-3.6,5.8,1.8,1.8,0,0,0-1.6,2.4v6.8a10.17,10.17,0,0,0,4.7-4.9,9.09,9.09,0,0,0,.6-3.6v-7.1a1.27,1.27,0,0,0-.1.6C555.3,301.9,555.4,301.5,555.4,301.7Z" transform="translate(0.01 3.3)" style="fill:#f3f4f7"/><g style="isolation:isolate"><g style="clip-path:url(#b)"><g style="isolation:isolate"><path d="M5.4,246.9v8.2C1.8,253,0,250.3,0,247.6v-8.2c0,2.7,1.8,5.4,5.4,7.5" transform="translate(0.01 3.3)" style="fill:url(#c)"/></g></g></g><path d="M550,293.6c7.2,4.1,7.2,10.8.1,15L344.7,427.9c-7.1,4.1-18.7,4.1-25.8,0L5.4,246.9c-7.2-4.1-7.2-10.8-.1-15L210.7,112.6c7.1-4.1,18.7-4.1,25.8,0Z" transform="translate(0.01 3.3)" style="fill:url(#d)"/><polygon points="550.11 311.9 550.11 320 344.71 439.4 344.71 431.2 550.11 311.9" style="fill:url(#e)"/><polygon points="318.91 431.2 318.91 439.4 5.41 258.4 5.41 250.2 318.91 431.2" style="fill:url(#f)"/><path d="M343,436.9c0.6-.3,1.2-0.6,1.7-0.9v-8.2a26.11,26.11,0,0,1-13.1,3.1,25.68,25.68,0,0,1-12.7-3.1V436C325.8,440.1,335.7,440.2,343,436.9Z" transform="translate(0.01 3.3)" style="fill:url(#g)"/><g style="opacity:0.5"><path d="M223.6,112.5h0a23.43,23.43,0,0,1,11.4,2.7l313.5,181c2.5,1.4,3.9,3.2,3.9,4.9s-1.4,3.4-3.8,4.8L343.2,425.3a25.42,25.42,0,0,1-22.8,0L6.9,244.3c-2.5-1.4-3.9-3.2-3.9-4.9s1.4-3.4,3.8-4.9L212.2,115.2a23.71,23.71,0,0,1,11.4-2.7m0-3a25.93,25.93,0,0,0-12.9,3.1L5.3,232c-7.1,4.1-7.1,10.8.1,15L318.9,428a28.39,28.39,0,0,0,25.8,0L550.1,308.6c7.1-4.1,7.1-10.8-.1-15l-313.5-181a25.67,25.67,0,0,0-12.9-3.1h0Z" transform="translate(0.01 3.3)" style="fill:url(#h)"/></g><path d="M524.4,297.1c3.8,2.2,3.8,5.8,0,7.9L338.5,413a15,15,0,0,1-13.7,0L31,243.4c-3.8-2.2-3.8-5.8,0-7.9l185.9-108a15,15,0,0,1,13.7,0Z" transform="translate(0.01 3.3)" style="fill:url(#i)"/><path d="M251,296l50.6,29.2-50.3,29.2-50.6-29.2Z" transform="translate(0.01 3.3)" style="fill:#fff"/><polygon points="288.81 328.5 251.31 350.3 213.41 328.5 251.01 306.7 288.81 328.5" style="fill:#fd9ab6"/><g style="opacity:0.800000011920929"><polygon points="380.31 233.4 267.51 299 259.41 294.4 372.31 228.8 380.31 233.4" style="fill:url(#j)"/><polygon points="408.51 249.7 295.71 315.3 287.61 310.7 400.51 245.1 408.51 249.7" style="fill:url(#k)"/><polygon points="352.11 217.1 180.51 316.9 172.51 312.2 344.11 212.5 352.11 217.1" style="fill:url(#l)"/><polygon points="436.81 266 265.21 365.7 257.11 361.1 428.71 261.3 436.81 266" style="fill:url(#m)"/><polygon points="422.61 257.8 309.81 323.4 301.71 318.8 414.61 253.2 422.61 257.8" style="fill:url(#n)"/><polygon points="366.21 225.3 194.61 325 186.61 320.4 358.21 220.6 366.21 225.3" style="fill:url(#o)"/><polygon points="394.41 241.6 281.61 307.2 273.51 302.5 386.41 236.9 394.41 241.6" style="fill:url(#p)"/><polygon points="338.01 209 166.41 308.7 158.41 304.1 330.01 204.3 338.01 209" style="fill:url(#q)"/><polygon points="450.91 274.1 279.31 373.8 271.21 369.2 442.81 269.5 450.91 274.1" style="fill:url(#r)"/><polygon points="465.01 282.3 293.41 382 285.31 377.3 456.91 277.6 465.01 282.3" style="fill:url(#s)"/></g></g><polygon points="251.81 124.8 167.11 174 130.81 195.1 223.41 248.5 259.61 227.5 344.41 178.2 251.81 124.8" style="fill:#132858;opacity:0.15000000596046448;isolation:isolate"/><polygon points="372.71 101.9 290.91 54.7 167.11 126.6 141.51 141.5 130.91 141.5 130.91 147.7 130.91 147.7 130.91 147.7 223.41 201.1 259.61 180 383.41 108.1 383.41 101.9 372.71 101.9" style="fill:url(#t)"/><path d="M290.9,45.2l92.5,53.4L259.7,170.5l-36.3,21.1-92.5-53.4,36.3-21.1Z" transform="translate(0.01 3.3)" style="fill:#fff"/><polygon points="372.11 101.9 223.31 188.4 142.21 141.5 290.91 55.1 372.11 101.9" style="fill:url(#u)"/><polygon points="226.31 229.6 128.11 286.6 120.11 282 218.21 225 226.31 229.6" style="fill:url(#v)"/><polygon points="240.41 237.8 142.21 294.8 134.21 290.1 232.31 233.1 240.41 237.8" style="fill:url(#w)"/><polygon points="184.01 205.2 85.81 262.2 77.81 257.6 175.91 200.5 184.01 205.2" style="fill:url(#x)"/><polygon points="198.11 213.3 99.91 270.4 91.91 265.7 190.01 208.7 198.11 213.3" style="fill:url(#y)"/><polygon points="212.21 221.5 114.01 278.5 106.01 273.9 204.11 216.8 212.21 221.5" style="fill:url(#z)"/><polygon points="380.31 233.5 267.51 299.1 259.41 294.4 372.31 228.8 380.31 233.5" style="fill:url(#aa)"/><polygon points="408.51 249.8 295.71 315.4 287.61 310.7 400.51 245.1 408.51 249.8" style="fill:url(#ab)"/><polygon points="352.11 217.2 180.51 316.9 172.51 312.3 344.11 212.5 352.11 217.2" style="fill:url(#ac)"/><polygon points="450.81 274.2 279.31 373.9 271.21 369.3 442.81 269.5 450.81 274.2" style="fill:url(#ad)"/><polygon points="464.91 282.3 293.41 382 285.31 377.4 456.91 277.7 464.91 282.3" style="fill:url(#ae)"/><polygon points="441.11 328.8 321.61 398.3 313.51 393.7 433.11 324.2 441.11 328.8" style="fill:url(#af)"/><polygon points="394.41 241.6 281.61 307.2 273.51 302.6 386.41 237 394.41 241.6" style="fill:url(#ag)"/><polygon points="338.01 209 166.41 308.8 158.41 304.1 330.01 204.4 338.01 209" style="fill:url(#ah)"/><polygon points="422.61 257.9 309.81 323.5 301.71 318.9 414.61 253.3 422.61 257.9" style="fill:url(#ai)"/><polygon points="366.21 225.3 194.61 325 186.61 320.4 358.21 220.7 366.21 225.3" style="fill:url(#aj)"/><polygon points="436.71 266 265.11 365.8 257.11 361.1 428.71 261.4 436.71 266" style="fill:url(#ak)"/><polygon points="427.01 320.7 307.51 390.2 299.41 385.5 419.01 316.1 427.01 320.7" style="fill:url(#al)"/><polygon points="555.51 304.4 555.01 302.1 553.61 299.9 551.81 298 500.61 268.2 489.11 274.8 424.21 312.6 446.81 325.6 486.81 348.7 551.81 310.8 553.71 308.9 555.01 306.8 555.51 304.4" style="fill:#132858;opacity:0.15000000596046448;isolation:isolate"/><polygon points="590.71 261.5 590.71 263.4 511.01 217.4 489.11 230.1 431.01 263.9 431.01 261.5 424.21 261.5 424.21 267.8 424.21 267.8 424.21 267.8 446.81 280.9 511.61 318.3 598.41 267.8 598.41 261.5 590.71 261.5" style="fill:url(#am)"/><path d="M511,207.9l87.4,50.5-86.8,50.5-64.8-37.4-22.6-13,64.9-37.7Z" transform="translate(0.01 3.3)" style="fill:#fff"/><polygon points="587.11 261.5 511.51 305.5 435.51 261.5 511.01 217.7 587.11 261.5" style="fill:url(#an)"/><polygon points="542.91 370.8 542.91 372.6 463.21 326.6 441.31 339.3 383.21 373.1 383.21 370.8 376.41 370.8 376.41 377 376.41 377 376.41 377 399.01 390.1 463.81 427.5 550.61 377 550.61 370.8 542.91 370.8" style="fill:url(#ao)"/><path d="M485.8,330.1l64.8,37.4L463.8,418,399,380.5l-22.6-13L463.2,317Z" transform="translate(0.01 3.3)" style="fill:#fff"/><polygon points="539.31 370.8 463.81 414.7 387.71 370.8 463.31 326.9 539.31 370.8" style="fill:url(#ap)"/><polygon points="383.91 409.6 383.91 411.3 304.21 365.3 282.31 378 224.21 411.8 224.21 409.6 217.41 409.6 217.41 415.8 217.41 415.8 217.41 415.8 240.01 428.8 304.81 466.2 391.61 415.8 391.61 409.6 383.91 409.6" style="fill:url(#aq)"/><path d="M326.8,368.8l64.8,37.4-86.8,50.5-87.4-50.5,31.9-18.5,54.9-31.9Z" transform="translate(0.01 3.3)" style="fill:#fff"/><polygon points="380.31 409.6 304.71 453.5 228.71 409.6 304.21 365.7 380.31 409.6" style="fill:url(#ar)"/><g style="opacity:0.10999999940395355;isolation:isolate"><path d="M290.9,45.2l49,28.3-61.9,36L229,81.2Z" transform="translate(0.01 3.3)" style="fill:#132858"/></g><polygon points="137.11 292.2 137.11 293.7 71.51 255.8 53.41 266.3 5.61 294.1 5.61 292.2 0.01 292.2 0.01 297.3 0.01 297.3 0.01 297.3 18.61 308.1 72.01 338.9 143.51 297.3 143.51 292.2 137.11 292.2" style="fill:url(#as)"/><path d="M71.5,247.4l72,41.6L72,330.6,18.6,299.8,0,289.1,53.4,258Z" transform="translate(0.01 3.3)" style="fill:#fff"/><polygon points="134.21 292.2 71.91 328.4 9.31 292.2 71.51 256 134.21 292.2" style="fill:url(#at)"/><polygon points="343.11 41.6 343.11 43 277.51 5.2 259.41 15.6 211.61 43.5 211.61 41.6 206.01 41.6 206.01 46.7 206.01 46.7 206.01 46.7 224.61 57.5 277.91 88.3 349.51 46.7 349.51 41.6 343.11 41.6" style="fill:url(#au)"/><path d="M277.5-3.3l72,41.6L278,79.9,224.6,49.1,206,38.4,259.5,7.3Z" transform="translate(0.01 3.3)" style="fill:#fff"/><polygon points="340.11 41.6 277.91 77.7 215.31 41.6 277.51 5.4 340.11 41.6" style="fill:url(#av)"/></svg>