<svg xmlns="http://www.w3.org/2000/svg" xmlns:xlink="http://www.w3.org/1999/xlink" viewBox="0 0 542.2 636.19"><defs><linearGradient id="a" x1="15.85" y1="81.7" x2="15.85" y2="198.5" gradientTransform="translate(0 -40.4)" gradientUnits="userSpaceOnUse"><stop offset="0" stop-color="#c1fed6"/><stop offset="1" stop-color="#3eb596"/></linearGradient><linearGradient id="b" x1="382.6" y1="324.95" x2="453.2" y2="324.95" xlink:href="#a"/><linearGradient id="c" x1="193.25" y1="297.6" x2="193.25" y2="415.9" gradientTransform="translate(0 -40.4)" gradientUnits="userSpaceOnUse"><stop offset="0" stop-color="#feb7cb"/><stop offset="1" stop-color="#fd759c"/></linearGradient><linearGradient id="d" x1="381.65" y1="531.2" x2="381.65" y2="608.41" xlink:href="#c"/><linearGradient id="e" x1="264.85" y1="13.2" x2="264.85" y2="90.41" xlink:href="#a"/><linearGradient id="f" x1="166.45" y1="520.5" x2="166.45" y2="581.11" xlink:href="#a"/><linearGradient id="g" x1="-36.75" y1="428.7" x2="-36.75" y2="502.38" xlink:href="#c"/><linearGradient id="h" x1="336.5" y1="561.76" x2="336.5" y2="279.09" gradientTransform="translate(0 -40.4)" gradientUnits="userSpaceOnUse"><stop offset="0" stop-color="#97b9fd"/><stop offset="1" stop-color="#dfeafe"/></linearGradient><linearGradient id="i" x1="353.6" y1="563.15" x2="353.6" y2="336.78" gradientTransform="translate(0 -40.4)" gradientUnits="userSpaceOnUse"><stop offset="0" stop-color="#dbdfe6"/><stop offset="1" stop-color="#fff"/></linearGradient><linearGradient id="j" x1="353.7" y1="344.06" x2="353.7" y2="531.04" gradientTransform="translate(0 -40.4)" gradientUnits="userSpaceOnUse"><stop offset="0" stop-color="#97b9fd"/><stop offset="1" stop-color="#4d84fa"/></linearGradient><linearGradient id="k" x1="386.85" y1="229.07" x2="386.85" y2="11.39" xlink:href="#h"/><linearGradient id="l" x1="400.15" y1="230.14" x2="400.15" y2="55.81" xlink:href="#i"/><linearGradient id="m" x1="400.2" y1="61.42" x2="400.2" y2="205.42" xlink:href="#j"/><linearGradient id="n" x1="81.75" y1="634.91" x2="81.75" y2="423.79" xlink:href="#h"/><linearGradient id="o" x1="94.55" y1="635.94" x2="94.55" y2="466.87" xlink:href="#i"/><linearGradient id="p" x1="94.6" y1="477.67" x2="94.6" y2="616.76" xlink:href="#c"/><linearGradient id="q" x1="95.2" y1="389.95" x2="95.2" y2="24.3" xlink:href="#h"/><linearGradient id="r" x1="117.55" y1="391.75" x2="117.55" y2="98.92" xlink:href="#i"/><linearGradient id="s" x1="117.55" y1="117.62" x2="117.55" y2="358.51" xlink:href="#c"/></defs><title>wb-feature-connect</title><g style="opacity:0.20000000298023224"><path d="M31.8,41.3a31.49,31.49,0,0,0-15.9,4.8C-6.3,58.9-24.3,93.3-24.3,122.9c0,22,10,35.2,24.2,35.2a31.49,31.49,0,0,0,15.9-4.8C38,140.4,56,106.1,56,76.5,55.9,54.4,46,41.3,31.8,41.3h0Z" transform="translate(62.1 27.2)" style="fill:url(#a)"/><g style="opacity:0.800000011920929"><path d="M431.9,233.3c-4.3,0-9,1.4-14,4.2-19.5,11.3-35.3,41.4-35.3,67.4,0,19.3,8.8,30.9,21.3,30.9,4.3,0,9-1.4,14-4.2,19.5-11.3,35.3-41.4,35.3-67.4,0-19.4-8.8-30.9-21.3-30.9h0Z" transform="translate(62.1 27.2)" style="fill:url(#b)"/></g><g style="opacity:0.800000011920929"><path d="M209.4,257.2c-5,0-10.4,1.6-16.2,4.9-22.5,12.9-40.6,47.7-40.6,77.8,0,22.3,10.1,35.6,24.5,35.6,5,0,10.4-1.6,16.2-4.9,22.5-12.9,40.6-47.7,40.6-77.8,0-22.2-10.1-35.6-24.5-35.6h0Z" transform="translate(62.1 27.2)" style="fill:url(#c)"/></g><g style="opacity:0.800000011920929"><path d="M392.2,490.8a20.76,20.76,0,0,0-10.5,3.2c-14.7,8.5-26.6,31.2-26.6,50.8,0,14.6,6.6,23.3,16,23.3a20.76,20.76,0,0,0,10.5-3.2c14.7-8.5,26.6-31.2,26.6-50.8,0-14.6-6.6-23.3-16-23.3h0Z" transform="translate(62.1 27.2)" style="fill:url(#d)"/></g><g style="opacity:0.800000011920929"><path d="M275.4-27.2A20.76,20.76,0,0,0,264.9-24c-14.7,8.5-26.6,31.2-26.6,50.8,0,14.6,6.6,23.3,16,23.3a20.76,20.76,0,0,0,10.5-3.2c14.7-8.5,26.6-31.2,26.6-50.8,0-14.6-6.6-23.3-16-23.3h0Z" transform="translate(62.1 27.2)" style="fill:url(#e)"/></g><g style="opacity:0.800000011920929"><path d="M174.7,480.1a16.42,16.42,0,0,0-8.2,2.5c-11.5,6.7-20.9,24.5-20.9,39.9,0,11.5,5.2,18.3,12.6,18.3a16.42,16.42,0,0,0,8.2-2.5c11.5-6.7,20.9-24.5,20.9-39.9-0.1-11.4-5.2-18.3-12.6-18.3h0Z" transform="translate(62.1 27.2)" style="fill:url(#f)"/></g><g style="opacity:0.800000011920929"><path d="M-26.7,388.3a19.62,19.62,0,0,0-10,3.1c-14,8.1-25.4,29.8-25.4,48.5,0,13.9,6.3,22.2,15.3,22.2a19.62,19.62,0,0,0,10-3.1c14-8.1,25.4-29.8,25.4-48.5,0-13.9-6.3-22.2-15.3-22.2h0Z" transform="translate(62.1 27.2)" style="fill:url(#g)"/></g></g><path d="M423.2,282.5l3.8-1.9-19.7-10.7h0c-18.6-9.3-43.6-7.2-71.1,8.7-57.3,33.1-103.7,113.3-103.5,179.2,0.1,32.4,11.4,55.3,29.7,66.2h-0.1l19.9,10.8,1.6-3.8c15.5,1.6,33.6-2.7,53-13.9C394.1,484,440.5,403.8,440.3,337.9,440.2,313.9,433.9,295.1,423.2,282.5Z" transform="translate(62.1 27.2)" style="fill:url(#h)"/><g style="isolation:isolate"><path d="M353.3,288c57.3-33.1,104-6.5,104.1,59.4S411.3,493.5,353.9,526.6s-104,6.5-104.1-59.3C249.7,401.3,296,321.1,353.3,288Zm0.6,211.4c44.3-25.6,80.1-87.6,79.9-138.5s-36.2-71.4-80.5-45.9-80.1,87.6-79.9,138.5,36.2,71.5,80.5,45.9" transform="translate(62.1 27.2)" style="fill:url(#i)"/><path d="M353.4,315.1c44.3-25.6,80.3-5,80.5,45.9S398.3,473.9,354,499.5s-80.3,5-80.5-45.9S309.1,340.7,353.4,315.1Z" transform="translate(62.1 27.2)" style="fill:url(#j)"/></g><g style="opacity:0.8999999761581421"><path d="M356.9,409.6h0Z" transform="translate(62.1 27.2)" style="fill:#142a59"/><path d="M315.3,457.9c1.6-4.6,3.3-9.1,5.1-13.7,2.1-3.2,4.2-6.4,6.4-9.6-1.3,3.9-2.4,7.9-3.5,11.7C320.6,450.1,317.9,454,315.3,457.9Z" transform="translate(62.1 27.2)" style="fill:#142a59"/><g style="isolation:isolate"><path d="M353.8,414.9c-1.1,5-2,10-2.7,14.9-5.1,4.1-10.2,8.6-15.2,13.5,0.8-4.4,1.8-8.8,2.9-13.2C343.7,424.7,348.7,419.6,353.8,414.9Z" transform="translate(62.1 27.2)" style="fill:#142a59"/><path d="M358.7,396.3c-1.6,5.2-3,10.4-4.2,15.5-5,4.5-9.9,9.4-14.7,14.6,1.3-4.7,2.7-9.5,4.3-14.2A203.94,203.94,0,0,1,358.7,396.3Z" transform="translate(62.1 27.2)" style="fill:#142a59"/><path d="M341.1,415.7q-2.1,6.75-3.9,13.5c-3.7,4.2-7.4,8.6-10.9,13.2,1.2-4.2,2.6-8.5,4-12.7C333.8,424.9,337.4,420.2,341.1,415.7Z" transform="translate(62.1 27.2)" style="fill:#142a59"/><path d="M332.4,424c2-5.4,4.2-10.7,6.5-16,3.1-4.2,6.2-8.3,9.4-12.3-2.1,5.2-4,10.3-5.8,15.5C339.1,415.3,335.7,419.6,332.4,424Z" transform="translate(62.1 27.2)" style="fill:#142a59"/></g><path d="M387.9,354.9A184.79,184.79,0,0,1,408,340.3c-2.6,6.8-4.9,13.7-6.8,20.5-0.5.3-1.1,0.6-1.7,0.9a174.78,174.78,0,0,0-17.9,12C383.4,367.5,385.5,361.2,387.9,354.9Z" transform="translate(62.1 27.2)" style="fill:#142a59"/><path d="M369.1,372.3c5.3-5.3,10.6-10.4,16.1-15.1-2.2,6.1-4.2,12.3-6,18.4a11.51,11.51,0,0,0-1.7,1.4c-5,4-10,8.3-14.9,13C364.5,384,366.7,378.2,369.1,372.3Z" transform="translate(62.1 27.2)" style="fill:#142a59"/><path d="M399.5,364.2a5.58,5.58,0,0,0,.8-0.5c-1.7,6.3-3.2,12.8-4.7,19.6-2.8,1.4-5.8,3-8.8,4.7q-5.25,3-10.5,6.6c1.2-5.8,2.6-11.7,4.2-17.6A171.36,171.36,0,0,1,399.5,364.2Z" transform="translate(62.1 27.2)" style="fill:#142a59"/><path d="M377.8,379.2l0.5-.4c-1.6,5.8-2.9,11.6-4.1,17.3a195.46,195.46,0,0,0-17.4,13.6c1.3-5.3,2.8-10.6,4.5-16A199.14,199.14,0,0,1,377.8,379.2Z" transform="translate(62.1 27.2)" style="fill:#142a59"/><path d="M353.3,428.1c0.7-5,1.7-10.1,2.9-15.3a203.52,203.52,0,0,1,17.6-14c-1.1,5.9-1.8,11.5-2.3,16.8-3.7,2.2-7.4,4.6-11,7.2C358,424.5,355.6,426.2,353.3,428.1Z" transform="translate(62.1 27.2)" style="fill:#142a59"/><path d="M322.1,450.9c-0.9,3.6-1.7,7.1-2.3,10.4a160.7,160.7,0,0,0-9.6,13.3c0.9-3.3,1.8-6.7,2.9-10C316,459.9,319,455.3,322.1,450.9Z" transform="translate(62.1 27.2)" style="fill:#142a59"/></g><path d="M453.7,4.7l2.9-1.4L441.4-5h0c-14.3-7.2-33.6-5.5-54.8,6.7-44.1,25.5-79.8,87.3-79.7,138,0.1,24.9,8.8,42.6,22.9,51h-0.1L345,199l1.3-3c12,1.3,25.9-2.1,40.8-10.7,44.1-25.5,79.8-87.3,79.7-138C466.8,28.9,462,14.4,453.7,4.7Z" transform="translate(62.1 27.2)" style="fill:url(#k)"/><g style="isolation:isolate"><path d="M399.9,8.9c44.1-25.5,80.1-5,80.2,45.7s-35.5,112.5-79.7,138-80.1,5-80.2-45.7S355.8,34.4,399.9,8.9Zm0.5,162.9c34.1-19.7,61.7-67.4,61.6-106.6s-27.9-55-62-35.3-61.7,67.4-61.6,106.6,27.9,55,62,35.3" transform="translate(62.1 27.2)" style="fill:url(#l)"/><path d="M400,29.8c34.1-19.7,61.9-3.9,62,35.3S434.5,152,400.4,171.7s-61.9,3.9-62-35.3S365.9,49.5,400,29.8Z" transform="translate(62.1 27.2)" style="fill:url(#m)"/></g><path d="M146.5,416.1l2.9-1.4-14.7-8h0c-13.9-7-32.6-5.3-53.1,6.5C38.6,437.9,4,497.9,4.2,547.1c0.1,24.2,8.5,41.3,22.2,49.5H26.3l14.9,8.1,1.2-2.9c11.6,1.2,25.1-2,39.6-10.4,42.8-24.7,77.4-84.7,77.3-133.9C159.2,439.6,154.5,425.5,146.5,416.1Z" transform="translate(62.1 27.2)" style="fill:url(#n)"/><g style="isolation:isolate"><path d="M94.3,420.2c42.8-24.7,77.6-4.9,77.8,44.3S137.6,573.6,94.8,598.3s-77.6,5-77.8-44.2S51.5,444.9,94.3,420.2Zm0.5,157.9c33.1-19.1,59.8-65.4,59.7-103.4s-27-53.4-60.1-34.3S34.6,505.8,34.7,543.8s27,53.4,60.1,34.3" transform="translate(62.1 27.2)" style="fill:url(#o)"/><path d="M94.4,440.5c33.1-19.1,60-3.8,60.1,34.3s-26.6,84.3-59.7,103.4-60,3.8-60.1-34.3S61.3,459.6,94.4,440.5Z" transform="translate(62.1 27.2)" style="fill:url(#p)"/></g><path d="M207.5,40.6l4.9-2.4L186.9,24.3h0c-24.1-12-56.5-9.3-92,11.3C20.7,78.4-39.2,182.2-39,267.4c0.1,41.9,14.8,71.5,38.4,85.7H-0.7l25.7,14,2.1-5c20.1,2.1,43.5-3.5,68.5-18,74.2-42.8,134.1-146.6,133.8-231.8C229.5,81.2,221.4,56.9,207.5,40.6Z" transform="translate(62.1 27.2)" style="fill:url(#q)"/><g style="isolation:isolate"><path d="M117.1,47.7c74.2-42.8,134.5-8.4,134.7,76.8S192.1,313.5,118,356.3s-134.5,8.4-134.7-76.8S42.9,90.5,117.1,47.7Zm0.8,273.5c57.3-33.1,103.6-113.3,103.4-179.1S174.5,49.7,117.2,82.8,13.6,196,13.8,261.9s46.8,92.4,104.1,59.3" transform="translate(62.1 27.2)" style="fill:url(#r)"/><path d="M117.2,82.7c57.3-33.1,103.9-6.5,104.1,59.3S175.2,288,117.9,321.1,14,327.7,13.8,261.9,59.9,115.8,117.2,82.7Z" transform="translate(62.1 27.2)" style="fill:url(#s)"/></g><g style="opacity:0.8999999761581421"><path d="M127.7,201.7c1.6-1,2.8-.7,3.1-0.3a0.45,0.45,0,0,1,0,.5,0.82,0.82,0,0,1-.5.5,5.74,5.74,0,0,0-.7.4,10.09,10.09,0,0,0-1.5.7A12,12,0,0,0,125,206a4.67,4.67,0,0,1-1,.9c-0.1.1-.2,0.1-0.2,0a0.35,0.35,0,0,1-.1-0.2,5,5,0,0,1,.7-1.7,11.32,11.32,0,0,1,2.7-2.9A5.92,5.92,0,0,1,127.7,201.7Z" transform="translate(62.1 27.2)" style="fill:#142a59"/><g style="isolation:isolate"><path d="M144.2,191.2h0c0.8-.5,1.4.2,1.4,1.5a4.32,4.32,0,0,1-1.4,3.1h0c-0.8.4-1.4-.2-1.4-1.5A3.82,3.82,0,0,1,144.2,191.2Z" transform="translate(62.1 27.2)" style="fill:#142a59"/><path d="M142.3,179.9c1.3-.8,2,0.6,2.5,3.1a10.39,10.39,0,0,1-.1,5,5.36,5.36,0,0,0-1.1.5,8.34,8.34,0,0,0-1.2.8,6,6,0,0,1-1.5-3.2c-0.6-2.7-.5-4.9,1-6.1A2.27,2.27,0,0,0,142.3,179.9Z" transform="translate(62.1 27.2)" style="fill:#142a59"/><path d="M164.2,197.2c1.6-.9,4.1-0.3,4.1,4.8s-1.8,11.8-2.2,13.3c-6.3,21.2-21.2,39.7-39,50-0.6.3-1.1,0.6-1.7,0.9-17.4,9.4-32.2,7.4-38.7-6-3.9,2.3-8,2.6-11,1.3-3.2-1.4-5.3-4.5-5.7-8.8a27,27,0,0,1,1-10.1l-3.6-1.4c-14.9-5.8,24.6-82.9,45.2-94.9,2.5-1.5,4.8-1.9,6.6-1.2,0.1,0,5.7,3.1,5.7,3.1l3.1-3.3c5.1-5.4,9.9-9.4,14-11.7,7.5-4.3,12.4-3.2,12.5,3.9,0,5.8-3.2,14.3-8.3,23.4,1.9,0.9,3.4,3.1,4.2,6.2a22.81,22.81,0,0,1,.9,6.4c0.1,2.3.2,7.7,0.2,7.8s1.6-.4,2.1-0.5c3.9-1,6.7-.9,8.1-0.1a4.83,4.83,0,0,1,2.3,3.8c0.2,1.4.2,4.1-1.5,8a12.65,12.65,0,0,1,.9,2.2C163.9,195.9,164.2,197.1,164.2,197.2Zm0.2,8.8c0.4-3.2-.2-4.1-1-4.2a2.12,2.12,0,0,0-1.4.4,0.69,0.69,0,0,0-.4.3,21,21,0,0,0-1.8-5.9A84.47,84.47,0,0,1,147.3,211a88.26,88.26,0,0,1-13.8,10.2c-1,.6-2,1.1-3,1.6-1.7.8-3.1,1.3-4.2,1.9a5.68,5.68,0,0,0-2.8,3.9,36.18,36.18,0,0,0,12.4-4.9c2.8-1.6,4.6-3,4.7-3s0.3,0,.3.1a0.76,0.76,0,0,1-.2.5,32.26,32.26,0,0,1-7.9,6.1,33.75,33.75,0,0,1-9.6,3.8c0.3,2.7,2.8,2.6,3.9,2.5a19.54,19.54,0,0,0,3.1-.8q2.55-1,5.1-2.4c11.3-6.5,21-19,23.5-22.4,0.3-.2.3-0.1,0.2,0.2l-0.3.6c-3.4,7.1-12.6,18.3-24.6,25.2-5.2,3-10.5,3.9-12.4,1.8-2.8-3.2-.4-11.5,4.1-14.1,0.2-.1.5-0.3,0.7-0.4,0,0,1.7-.8,2.2-1a43.25,43.25,0,0,0,4.2-2.2,79.87,79.87,0,0,0,18.4-15c6.8-7.5,9.3-13,8.9-16a2.54,2.54,0,0,0-1.2-2c-1.2-.7-3.2-0.6-6.4.2a18.48,18.48,0,0,1-2.6.6c-1.4.3-2.1,0.3-2.3-2.7-0.1-1.3-.3-5.8-0.4-7.6-0.1-3.3-.5-7.6-3-8.1a4.13,4.13,0,0,0-2.1.4,0.35,0.35,0,0,0-.2.1,3.65,3.65,0,0,0-1,.7,16.4,16.4,0,0,0-3.3,4c-2.8,4.2-5.1,6.3-7.7,7.7a5.58,5.58,0,0,0-.8.5c-1.7.9-3.5,1.7-5.6,2.7l-1.2.6c-0.1.1-.3,0.1-0.4,0.2-4.7,2.7-9.6,10.3-10.4,17.4-1.2,10.2,4.8,11.6,6.5,13.5a1.37,1.37,0,0,1,.5,1,3.49,3.49,0,0,1-.6,1.7c-4.9,8.7-6.5,18.8-4.6,25.4a9.17,9.17,0,0,0,.9,2.3c3.3,6.9,11.7,7.3,21.3,1.8a52.29,52.29,0,0,0,9.8-7.5c1.8-1.7,3.4-3.5,5-5.3a68.09,68.09,0,0,0,7.7-11,46,46,0,0,0,6.3-17.8M81.7,226.2a171.64,171.64,0,0,1,23.1-50.9A270.8,270.8,0,0,1,121,153.1c-0.2-.2-4.6-3.4-5.9-3.1a12.78,12.78,0,0,0-2.2.9c-9.1,5.2-25.3,28.2-35.9,51.9-4.7,10.4-11.4,27.9-8.1,33.1,0.4,0.6,2.6,1.6,3.8,2a32.53,32.53,0,0,1,9-11.7m6.4,28.5c6.1-4.7,7.7-13.2,6.6-20.1-1.2-7.8-6.1-7.9-9.5-6.1-0.2.1-.3,0.2-0.5,0.3a14.29,14.29,0,0,0-2,1.4c-6,4.9-9.4,12.7-8.7,19.9,0.6,6.5,6.7,8.9,12.3,5.8,0.1-.1.2-0.1,0.3-0.2a13,13,0,0,0,1.5-1M103.2,188l0.1-.1a92.29,92.29,0,0,1,14.8-16.1,71.57,71.57,0,0,1,9.1-6.5,42.29,42.29,0,0,1,9.2-4.1,0.55,0.55,0,0,0,.2-0.6c-2.8-.2-7.1,1.1-10.1,2.8-0.2.1-.2-0.1-0.1-0.3a21.69,21.69,0,0,1,1.9-3.3c0.1-.2.1-0.4-0.1-0.3a52.62,52.62,0,0,0-12.1,11.9l-0.1.1c-0.1.1-.2,0-0.2-0.2a21.89,21.89,0,0,1,1.3-4.3c0.1-.2,0-0.3-0.2-0.2a0.1,0.1,0,0,0-.1.1,118.21,118.21,0,0,0-13.7,20.9c-0.1.1,0,.3,0.1,0.2" transform="translate(62.1 27.2)" style="fill:#142a59"/></g><path d="M125.4,197.9a7.18,7.18,0,0,1,2.9-1,3.46,3.46,0,0,1,2.9,1,0.77,0.77,0,0,1,.1,1l-0.3.3a5.94,5.94,0,0,1-1.8.3,9.72,9.72,0,0,0-3.8,1.1c-0.1.1-.3,0.2-0.4,0.3-2.4,1.5-4.4,3.9-5.1,4.3h-0.1c-0.3.1-.4,0-0.4-0.1-0.1-.5.6-1.7,1.3-2.8A13.84,13.84,0,0,1,125.4,197.9Z" transform="translate(62.1 27.2)" style="fill:#142a59"/><path d="M138.2,197.8a2,2,0,0,1,1.1-.3,1.19,1.19,0,0,1,1.1,1.8,2.73,2.73,0,0,1-1.3,1.5,2,2,0,0,1-1.1.3,1.19,1.19,0,0,1-1.1-1.8A2.73,2.73,0,0,1,138.2,197.8Z" transform="translate(62.1 27.2)" style="fill:#142a59"/><path d="M84.2,234a4.88,4.88,0,0,1,.7-0.3c1.8-.8,3.2-0.4,4.1,1.1,1.2,1.9.1,5.3-.5,7.3-0.1.2-.1,0.4-0.2,0.6-0.4,1.3-.4,2.3,0,2.7a1,1,0,0,0,1.3,0,4.35,4.35,0,0,0,.7-0.6,1,1,0,0,1,.4-0.3,0.3,0.3,0,0,1,.4,0c0.1,0,.2.2,0.1,0.6a5.55,5.55,0,0,1-2.3,2.7,0.1,0.1,0,0,0-.1.1c-1.3.6-2.7,0.4-3-2.2a13.74,13.74,0,0,1,.6-4.2c0.5-1.9,0-3.4-1.2-3.6a2.26,2.26,0,0,0-1.7.4,3,3,0,0,0-.7.5,7.94,7.94,0,0,0-2,2.7,11.64,11.64,0,0,0-.7,2.4,1,1,0,0,1-.1.3,3.14,3.14,0,0,1-.9,1.6H79c-0.1.1-.3,0.1-0.5-0.3-0.3-.9-0.1-4,1.7-7.3A12.48,12.48,0,0,1,84.2,234Z" transform="translate(62.1 27.2)" style="fill:#142a59"/></g><g style="opacity:0.8999999761581421"><path d="M430.2,72.6c0,10.4.1,20.8,0.1,31.2,0,6.6-2.7,12.9-7.8,18.7a23.36,23.36,0,0,1-5.3,4.4c-2.5,1.5-5.1,2.9-7.6,4.4l-3.6,2.1c-1.7,1-3.4,2-5.1,2.9-0.6.4-.9,0.3-1.2-0.2a60.25,60.25,0,0,1-5-17.3,85.44,85.44,0,0,1-.7-14.5,120.13,120.13,0,0,1,4.7-28.6c0.1-.4.1-0.7,0.2-1.1,6.3-3.6,12.6-7.3,18.9-10.9,0.5-.2,1-0.3,1.5-0.5,5.8-2,10,.7,10.7,7.1A16.42,16.42,0,0,1,430.2,72.6ZM409.5,126a2.19,2.19,0,0,0-.8-2.4c-5.8-6.1-7.7-15.3-5.7-27.7a69,69,0,0,1,5.9-18.2,4.07,4.07,0,0,0,.6-2.7,1.22,1.22,0,0,0-1.8-1.1l-0.6.3a6.66,6.66,0,0,0-2.1,2.5c-5,10.7-7.5,21-7.6,30.8a30.28,30.28,0,0,1,.2,3.1,32.13,32.13,0,0,0,2.8,12.1,21,21,0,0,0,4.9,6.9,1.48,1.48,0,0,0,1.9.1c0.2-.1.3-0.2,0.5-0.3a7.48,7.48,0,0,0,1.8-3.4m7.7-10.6c0.8-1.1.9-2.2,0.3-2.9a2.36,2.36,0,0,0-.5-0.5c-4.3-4.2-5.6-10.9-4.1-19.8a46.63,46.63,0,0,1,4.3-12.9c0.9-1.8.5-3.1-.8-2.8a1.06,1.06,0,0,0-.5.2,4.88,4.88,0,0,0-1.5,1.9,52.29,52.29,0,0,0-5.6,22,7.57,7.57,0,0,1,.1,1.5,19.83,19.83,0,0,0,2.2,9.2,44.13,44.13,0,0,0,3.6,4.9,0.92,0.92,0,0,0,1.3.1,1.78,1.78,0,0,0,1.2-.9" transform="translate(62.1 27.2)" style="fill:#142a59"/><path d="M389.2,80.2c-0.9,4.4-2,8.8-2.7,13.2-0.7,4-1.1,8-1.4,11.9-0.3,3.4-.3,6.6-0.3,9.8a78.79,78.79,0,0,0,3.6,23.1c0.4,1.3.9,2.5,1.3,3.7a6.37,6.37,0,0,1,.2.7c-0.1,0-.1.1-0.2,0.1-5.1,2.9-9.1,3-11.9-.1a8.8,8.8,0,0,1-2.1-5.3,0.76,0.76,0,0,0-.2-0.5c0-11.4-.1-22.9-0.1-34.3a2.35,2.35,0,0,0,.2-0.8c0.6-7,4.9-14.8,10.6-19.3l1.6-1.3C388.4,80.7,388.8,80.5,389.2,80.2Z" transform="translate(62.1 27.2)" style="fill:#142a59"/></g><g style="opacity:0.8999999761581421"><path d="M126,486.9a28.87,28.87,0,0,1,.4,5.2,36.42,36.42,0,0,1-.4,5.7l-16.5,9.5,11.7,6.7a65.36,65.36,0,0,1-3,5.9,66.49,66.49,0,0,1-3.6,5.6l-11.7-6.7,0.1,19a43.48,43.48,0,0,1-4.7,3.2,40.46,40.46,0,0,1-4.7,2.3l-0.1-19L81.8,544.5a13.25,13.25,0,0,1-6.7-3.8l11.7-20.2L70.3,530a28.16,28.16,0,0,1-.4-5.2c0-1.9.4-5.5,0.4-5.7l16.5-9.5-11.7-6.7a65.35,65.35,0,0,1,3-5.9,66.5,66.5,0,0,1,3.6-5.6l11.7,6.7-0.1-19a48.67,48.67,0,0,1,4.7-3.2,40.47,40.47,0,0,1,4.7-2.3l0.1,19,11.6-20.2a13.25,13.25,0,0,1,6.7,3.8l-11.6,20.2Zm-21.9,25a29,29,0,0,0,1.1-7.5,17.29,17.29,0,0,0-1.1-6.3,17.63,17.63,0,0,0-6,2.2,28.82,28.82,0,0,0-6,4.7,28.36,28.36,0,0,0-1.1,7.5,17.29,17.29,0,0,0,1.1,6.3,17.63,17.63,0,0,0,6-2.2,28.82,28.82,0,0,0,6-4.7" transform="translate(62.1 27.2)" style="fill:#142a59"/></g></svg>