<svg xmlns="http://www.w3.org/2000/svg" xmlns:xlink="http://www.w3.org/1999/xlink" viewBox="0 0 583.9 619"><defs><linearGradient id="a" x1="491.9" y1="565.7" x2="491.9" y2="352.66" gradientTransform="matrix(1, 0, 0, -1, 0, 620)" gradientUnits="userSpaceOnUse"><stop offset="0" stop-color="#4d84fa"/><stop offset="1" stop-color="#fff"/></linearGradient><linearGradient id="b" x1="489.15" y1="268.97" x2="489.15" y2="598.42" gradientTransform="matrix(1, 0, 0, -1, 0, 620)" gradientUnits="userSpaceOnUse"><stop offset="0" stop-color="#97b9fd"/><stop offset="1" stop-color="#fff"/></linearGradient><linearGradient id="c" x1="249.55" y1="327.71" x2="249.55" y2="48.64" xlink:href="#a"/><linearGradient id="d" x1="246" y1="-60.99" x2="246" y2="370.58" xlink:href="#b"/><linearGradient id="e" x1="246" y1="288" x2="246" y2="80.1" gradientTransform="matrix(1, 0, 0, -1, 0, 620)" gradientUnits="userSpaceOnUse"><stop offset="0" stop-color="#feb7cb"/><stop offset="1" stop-color="#fd759c"/></linearGradient><linearGradient id="f" x1="489.25" y1="536.7" x2="489.25" y2="375.3" gradientTransform="matrix(1, 0, 0, -1, 0, 620)" gradientUnits="userSpaceOnUse"><stop offset="0" stop-color="#c1fed6"/><stop offset="1" stop-color="#3eb596"/></linearGradient><linearGradient id="g" x1="50.4" y1="507.7" x2="50.4" y2="361.3" xlink:href="#e"/><linearGradient id="h" x1="456.6" y1="207.15" x2="527.2" y2="207.15" xlink:href="#f"/><linearGradient id="i" x1="273.6" y1="564.5" x2="273.6" y2="451" xlink:href="#e"/><linearGradient id="j" x1="417.85" y1="114.3" x2="417.85" y2="37.09" xlink:href="#e"/><linearGradient id="k" x1="165.55" y1="562.3" x2="165.55" y2="485.09" xlink:href="#f"/></defs><title>wb-feature-automate</title><path d="M376.4,141.1c-0.6,2.3-1.1,4.5-1.6,6.8l-24,17V221l22.3,13-9.5,20.9,29.8,22.5,6.5,3.8L422.2,165Z" transform="translate(0 0.7)" style="fill:#c0d5fd"/><path d="M431.8,115.4l31.4-22.1L417.9,62.1c-2,2.2-3.9,4.4-5.8,6.8l-18.7-9.6-29.8,56.9,15.3,16.1c-0.9,2.9-1.7,5.9-2.5,8.8l45.8,24Z" transform="translate(0 0.7)" style="fill:#5d95f9"/><path d="M561.5,68.2L571,47.3,541.2,24.8,497.5-.7l-8.4,14L466.5,0.1,424.4,24.4,422,57.7q-2.1,2.1-4.2,4.5l45.3,31.2,36.3-25.5,84.4,14.6V81.3Z" transform="translate(0 0.7)" style="fill:#5d95f9"/><polygon points="422.2 165.8 430.7 170.3 442 122.1 470.5 99.1 463.2 94.1 431.8 116.1 422.2 165.8" style="fill:#ed1c24"/><path d="M463.2,93.4l7.3,5,15.6-12.6c3.8,6.9,5.9,16.1,5.9,27.2,0,34.8-21.1,75.2-47.2,90.2a40.79,40.79,0,0,1-8.9,4l-10.7-13.8,5.5-23.8-8.5-4.5L399.9,281.3l37.2,21.8,8.4-14,22.6,13.2L510.2,278l2.4-33.4c3.4-3.5,6.8-7.3,10-11.3l18.7,9.6L571.1,186l-15.3-16.1c1.6-5.2,3-10.4,4.1-15.7l24-17V82.5L499.5,67.9Z" transform="translate(0 0.7)" style="fill:url(#a)"/><polygon points="583.9 82 540.1 56.4 540.1 112.5 583.9 138.1 583.9 82" style="fill:#c0d5fd"/><polygon points="468.2 303 424.4 277.5 466.5 253.2 510.3 278.7 468.2 303" style="fill:#4b88e2"/><polygon points="522.6 56.7 509.4 49 511.9 60.1 519.9 61.2 522.6 56.7" style="fill:#97b9fd"/><path d="M378.9,132.3c-1.6,5.2-3,10.4-4.1,15.7l43.7,25.6,9.2,1.5V160.7l-5.1-2.8Z" transform="translate(0 0.7)" style="fill:#97b9fd"/><polygon points="407.4 281.3 363.7 255.7 378.9 222 422.7 247.6 407.4 281.3" style="fill:#5d95f9"/><path d="M423.7,237l-5.1-1-43.7-25.6a66.64,66.64,0,0,0,4.1,10.9l42.5,24.9a1.27,1.27,0,0,0,.6-0.1v0.4l0.6,0.4,2.6-3.6Z" transform="translate(0 0.7)" style="fill:#4b88e2"/><polygon points="541.3 25.5 497.5 0 478.9 31.1 522.6 56.7 541.3 25.5" style="fill:#c0d5fd"/><polygon points="510.3 26.3 466.5 0.8 424.4 25.1 468.2 50.6 510.3 26.3" style="fill:#c0d5fd"/><path d="M455.8,94.5l3.4,1.8L469,84.9l-3.3-1.7L422,57.7c-3.4,3.5-6.8,7.3-10,11.3Z" transform="translate(0 0.7)" style="fill:#97b9fd"/><polygon points="455.8 95.2 437.2 85.6 393.4 60.1 412.1 69.7 455.8 95.2" style="fill:#c0d5fd"/><polygon points="437.2 85.6 393.4 60.1 363.7 116.9 407.4 142.5 437.2 85.6" style="fill:#97b9fd"/><path d="M583.9,137.4V81.3L559.9,92a66.64,66.64,0,0,0-4.1-10.9L571,47.3,541.2,24.8,522.6,56a48.16,48.16,0,0,0-10,.2l-2.4-30.6L468.1,49.9l-2.4,33.4c-3.4,3.5-6.8,7.3-10,11.3L437,85l-29.8,56.9L422.5,158c-1.6,5.2-3,10.4-4.1,15.7l-24,17v56.1l24-10.7a66.64,66.64,0,0,0,4.1,10.9l-15.3,33.7L437,303.2l18.7-31.1a48.16,48.16,0,0,0,10-.2l2.4,30.6,42.1-24.3,2.4-33.4c3.4-3.5,6.8-7.3,10-11.3l18.7,9.6,29.8-56.9-15.3-16.1c1.6-5.2,3-10.4,4.1-15.7Zm-47.5-.7c0,34.8-21.1,75.2-47.2,90.2S442,226,442,191.2,463.1,116,489.2,101,536.4,101.9,536.4,136.7Z" transform="translate(0 0.7)" style="fill:url(#b)"/><polygon points="394.6 191.3 350.8 165.7 350.8 221.8 394.6 247.4 394.6 191.3" style="fill:#86b1f7"/><polygon points="407.4 281.3 363.7 255.7 393.4 278.2 437.2 303.8 407.4 281.3" style="fill:#4b88e2"/><path d="M98.3,406c-0.8,3-1.5,5.9-2.1,8.9L64.8,437.2v73.5L94,527.8,81.6,555.2l39,29.5,8.6,5,29.2-152.2Z" transform="translate(0 0.7)" style="fill:#c0d5fd"/><path d="M170.8,372.4l41.1-28.9-59.4-40.8c-2.6,2.9-5.1,5.8-7.6,8.9L120.5,299l-39,74.5,20,21c-1.2,3.8-2.3,7.7-3.3,11.6l60,31.4Z" transform="translate(0 0.7)" style="fill:#5d95f9"/><path d="M340.8,310.5l12.4-27.4-39-29.5-57.3-33.5-11,18.3-29.6-17.3L161.1,253,158,296.7c-1.9,1.9-3.7,3.9-5.5,5.9l59.4,40.8L259.4,310,370,329.2v-1.6Z" transform="translate(0 0.7)" style="fill:#5d95f9"/><polygon points="158.3 438.2 169.4 444 184.1 380.9 221.5 350.7 211.9 344.2 170.8 373.1 158.3 438.2" style="fill:#ed1c24"/><path d="M211.9,343.5l9.6,6.6L242,333.6c5,9,7.8,21,7.8,35.6,0,45.6-27.7,98.5-61.9,118.2a61.2,61.2,0,0,1-11.6,5.2l-14-18.1,7.2-31.1-11.1-5.8L129.2,589.8l48.7,28.5,11-18.3,29.6,17.3,55.1-31.8,3.1-43.7a184.25,184.25,0,0,0,13-14.7l24.4,12.6,39-74.5-20-21c2.1-6.8,3.9-13.6,5.4-20.5l31.4-22.3V329.5L259.3,310.4Z" transform="translate(0 0.7)" style="fill:url(#c)"/><polygon points="370 328.3 312.7 294.8 312.7 368.3 370 401.8 370 328.3" style="fill:#c0d5fd"/><polygon points="218.4 617.9 161.1 584.4 216.3 552.6 273.6 586.1 218.4 617.9" style="fill:#4b88e2"/><polygon points="289.7 295.2 272.4 285.1 275.7 299.6 286.2 301.2 289.7 295.2" style="fill:#97b9fd"/><path d="M101.6,394.5c-2.1,6.8-3.9,13.6-5.4,20.5l57.3,33.5,12.1,1.9V431.6l-6.7-3.6Z" transform="translate(0 0.7)" style="fill:#97b9fd"/><polygon points="138.8 589.4 81.5 555.9 101.6 511.8 158.9 545.3 138.8 589.4" style="fill:#5d95f9"/><path d="M160.2,531.7l-6.7-1.3L96.2,496.9a96.42,96.42,0,0,0,5.4,14.3l55.7,32.6a1.7,1.7,0,0,0,.7-0.1v0.5l0.8,0.5,3.4-4.7Z" transform="translate(0 0.7)" style="fill:#4b88e2"/><polygon points="314.2 254.4 256.9 220.9 232.4 261.7 289.7 295.2 314.2 254.4" style="fill:#c0d5fd"/><polygon points="273.6 255.4 216.3 221.9 161.1 253.7 218.4 287.2 273.6 255.4" style="fill:#c0d5fd"/><path d="M202.3,345l4.5,2.3,12.9-14.9-4.3-2.2L158,296.8a184.26,184.26,0,0,0-13,14.7Z" transform="translate(0 0.7)" style="fill:#97b9fd"/><polygon points="202.3 345.7 177.8 333.1 120.5 299.6 145 312.2 202.3 345.7" style="fill:#c0d5fd"/><polygon points="177.8 333.1 120.5 299.6 81.5 374.1 138.8 407.6 177.8 333.1" style="fill:#97b9fd"/><path d="M370,401.1V327.6l-31.4,14a96.42,96.42,0,0,0-5.4-14.3l20-44.2-39-29.5-24.4,40.8a56.94,56.94,0,0,0-13,.3l-3.1-40.1-55.1,31.8-3.1,43.7a184.26,184.26,0,0,0-13,14.7l-24.4-12.6-39,74.5,20,21c-2.1,6.8-3.9,13.6-5.4,20.5L122,470.8v73.5l31.4-14a96.42,96.42,0,0,0,5.4,14.3l-20,44.2,39,29.5,24.4-40.8a56.94,56.94,0,0,0,13-.3l3.1,40.1,55.1-31.8,3.1-43.7a184.25,184.25,0,0,0,13-14.7l24.4,12.6,39-74.5-20-21c2.1-6.8,3.9-13.6,5.4-20.5Zm-62.1-.9c0,45.6-27.7,98.5-61.9,118.2s-61.9-1.2-61.9-46.8,27.7-98.5,61.9-118.2S307.9,354.7,307.9,400.2Z" transform="translate(0 0.7)" style="fill:url(#d)"/><polygon points="122 471.5 64.7 438 64.7 511.5 122 545 122 471.5" style="fill:#86b1f7"/><polygon points="138.8 589.4 81.5 555.9 120.5 585.4 177.8 618.9 138.8 589.4" style="fill:#4b88e2"/><g style="opacity:0.699999988079071"><path d="M270.6,346c22,0,37.3,20.3,37.3,54.2,0,45.6-27.7,98.5-61.9,118.2-8.7,5-17,7.4-24.6,7.4-22,0-37.3-20.3-37.3-54.2,0-45.6,27.7-98.5,61.9-118.2,8.7-5,17-7.4,24.6-7.4m0-14v0c-10.3,0-20.9,3.1-31.6,9.3-18.8,10.9-36.3,30.4-49.2,55.1-12.7,24.3-19.7,51-19.7,75.3,0,19.3,4.5,35.9,13,47.9,9.3,13.1,22.9,20.3,38.3,20.3,10.3,0,20.9-3.1,31.6-9.3,18.8-10.9,36.3-30.4,49.2-55.1,12.7-24.3,19.7-51,19.7-75.3,0-19.3-4.5-35.9-13-47.9C299.6,339.2,286,332,270.6,332h0Z" transform="translate(0 0.7)" style="fill:url(#e)"/></g><g style="opacity:0.699999988079071"><path d="M508,95.3c16.8,0,28.5,15.5,28.5,41.4,0,34.8-21.2,75.2-47.2,90.3-6.7,3.8-13,5.7-18.8,5.7-16.8,0-28.5-15.5-28.5-41.4,0-34.8,21.2-75.2,47.2-90.3,6.7-3.9,13-5.7,18.8-5.7m0-12h0c-8.1,0-16.4,2.4-24.8,7.3C453.3,107.8,430,152,430,191.3c0,15,3.5,27.9,10.2,37.3,7.3,10.4,18.1,16.1,30.3,16.1,8.1,0,16.4-2.4,24.8-7.3,29.9-17.2,53.2-61.5,53.2-100.7,0-15-3.5-27.9-10.2-37.3C531,89,520.2,83.3,508,83.3h0Z" transform="translate(0 0.7)" style="fill:url(#f)"/></g><g style="opacity:0.800000011920929"><path d="M70.4,131.3c2,0,4.1.4,6.4,3.7,1.9,2.6,5,8.9,5,21.4,0,14.7-4.6,31.9-12.6,47.2-7.7,14.8-18.1,26.7-28.3,32.6-5,2.9-8.5,3.5-10.5,3.5s-4.1-.4-6.4-3.7c-1.9-2.6-5-8.9-5-21.4,0-14.7,4.6-31.9,12.6-47.2,7.7-14.8,18.1-26.7,28.3-32.6,5-2.9,8.4-3.5,10.5-3.5h0m0-19c-6.1,0-12.9,1.9-20,6C22.5,134.4,0,177.5,0,214.6c0,27.6,12.5,44.1,30.4,44.1,6.1,0,12.9-1.9,20-6,27.8-16.1,50.4-59.1,50.4-96.2-0.1-27.7-12.6-44.2-30.4-44.2h0Z" transform="translate(0 0.7)" style="fill:url(#g)"/></g><g style="opacity:0.800000011920929"><path d="M505.9,374.6c1.4,0,3,.3,4.7,2.7,1.3,1.9,3.6,6.4,3.6,15.2,0,10.4-3.2,22.5-8.9,33.2-5.5,10.4-12.7,18.8-19.9,23-3.6,2.1-6.1,2.5-7.5,2.5s-3-.3-4.7-2.7c-1.3-1.9-3.6-6.4-3.6-15.2,0-10.4,3.2-22.5,8.9-33.2,5.5-10.4,12.7-18.8,19.9-23,3.6-2.1,6.1-2.5,7.5-2.5h0m0-13c-4.3,0-9,1.4-14,4.2-19.5,11.3-35.3,41.4-35.3,67.4,0,19.3,8.8,30.9,21.3,30.9,4.3,0,9-1.4,14-4.2,19.5-11.3,35.3-41.4,35.3-67.4,0-19.4-8.8-30.9-21.3-30.9h0Z" transform="translate(0 0.7)" style="fill:url(#h)"/></g><g style="opacity:0.800000011920929"><path d="M289.1,70.3c1.5,0,3.2.3,4.9,2.8,1.4,2,3.9,6.9,3.9,16.6,0,11.4-3.6,24.7-9.8,36.6-6,11.5-14,20.7-21.9,25.3-3.9,2.2-6.6,2.7-8.1,2.7s-3.2-.3-4.9-2.8c-1.4-2-3.9-6.9-3.9-16.6,0-11.4,3.6-24.7,9.8-36.6,6-11.5,14-20.7,21.9-25.3,3.8-2.3,6.5-2.7,8.1-2.7h0m0-14.8c-4.8,0-10,1.5-15.5,4.7-21.6,12.4-39,45.8-39,74.6,0,21.4,9.7,34.2,23.5,34.2,4.8,0,10-1.5,15.5-4.7,21.6-12.4,39-45.8,39-74.6,0-21.4-9.7-34.2-23.5-34.2h0Z" transform="translate(0 0.7)" style="fill:url(#i)"/></g><g style="opacity:0.800000011920929"><path d="M428.4,505.7v9c4.8,0,7,7.2,7,14.3,0,16.4-10.1,36.1-22.1,43a12.47,12.47,0,0,1-6,2c-4.8,0-7-7.2-7-14.3,0-16.4,10.1-36.1,22.1-43a12.47,12.47,0,0,1,6-2v-9m0,0a20.76,20.76,0,0,0-10.5,3.2c-14.7,8.5-26.6,31.2-26.6,50.8,0,14.6,6.6,23.3,16,23.3a20.76,20.76,0,0,0,10.5-3.2c14.7-8.5,26.6-31.2,26.6-50.8,0-14.6-6.6-23.3-16-23.3h0Z" transform="translate(0 0.7)" style="fill:url(#j)"/></g><g style="opacity:0.800000011920929"><path d="M176.1,57.7v8.8a5,5,0,0,1,4.3,2.4c1.8,2.6,2.9,6.9,2.9,12,0,16.4-10.1,36.2-22.1,43.1a13.13,13.13,0,0,1-6.1,2,5,5,0,0,1-4.3-2.4c-1.8-2.6-2.9-6.9-2.9-12,0-16.4,10.1-36.2,22.1-43.1a13.13,13.13,0,0,1,6.1-2V57.7m0,0a20.76,20.76,0,0,0-10.5,3.2C150.9,69.4,139,92.1,139,111.7c0,14.6,6.6,23.3,16,23.3a20.76,20.76,0,0,0,10.5-3.2c14.7-8.5,26.6-31.2,26.6-50.8,0-14.6-6.6-23.3-16-23.3h0Z" transform="translate(0 0.7)" style="fill:url(#k)"/></g></svg>