<svg xmlns="http://www.w3.org/2000/svg" xmlns:xlink="http://www.w3.org/1999/xlink" viewBox="0 0 1755.87 1378.41"><defs><linearGradient id="a" x1="342.5" y1="236.02" x2="342.5" y2="773.89" gradientTransform="matrix(1, 0, 0, -1, 0, 774)" gradientUnits="userSpaceOnUse"><stop offset="0" stop-color="#2ccdfd"/><stop offset="1" stop-color="#aaedfe" stop-opacity="0"/></linearGradient><linearGradient id="b" x1="122.9" y1="36.72" x2="122.9" y2="272.78" gradientTransform="matrix(1, 0, 0, -1, 1047.97, 1378.11)" gradientUnits="userSpaceOnUse"><stop offset="0" stop-color="#fd84a7" stop-opacity="0"/><stop offset="1" stop-color="#fd84a7"/></linearGradient><linearGradient id="c" x1="380.5" y1="34.16" x2="380.5" y2="287.29" gradientTransform="matrix(1, 0, 0, -1, 0, 774)" gradientUnits="userSpaceOnUse"><stop offset="0" stop-color="#4d84fa" stop-opacity="0"/><stop offset="1" stop-color="#4d84fa"/></linearGradient><linearGradient id="d" x1="342.75" y1="242.17" x2="342.75" y2="746.73" xlink:href="#a"/><linearGradient id="e" x1="343.5" y1="250.72" x2="343.5" y2="745.31" xlink:href="#a"/><linearGradient id="f" x1="1386.77" y1="593.02" x2="1386.77" y2="1166.79" gradientTransform="matrix(-1, 0, 0, -1.15, 778.84, 794.04)" gradientUnits="userSpaceOnUse"><stop offset="0" stop-color="#fff"/><stop offset="1" stop-color="#fff" stop-opacity="0.7"/></linearGradient><linearGradient id="g" x1="433.3" y1="821.34" x2="433.3" y2="438.71" gradientTransform="matrix(1, 0, 0, -1, 1047.97, 1378.11)" gradientUnits="userSpaceOnUse"><stop offset="0" stop-color="#c1fed6"/><stop offset="1" stop-color="#3eb596"/></linearGradient><linearGradient id="h" x1="200.04" y1="587.2" x2="338.18" y2="587.2" xlink:href="#g"/><linearGradient id="i" x1="500.77" y1="738.81" x2="120.55" y2="656.54" gradientTransform="matrix(1, 0, 0, -1, 0, 774)" xlink:href="#g"/><linearGradient id="j" x1="145.56" y1="391.45" x2="67.74" y2="391.45" gradientTransform="matrix(1, 0, 0, -1, 0, 774)" gradientUnits="userSpaceOnUse"><stop offset="0" stop-color="#fc3768"/><stop offset="1" stop-color="#fd759c"/></linearGradient><linearGradient id="k" x1="245" y1="261.24" x2="245" y2="460.55" gradientTransform="matrix(1, 0, 0, -1, 1047.97, 1378.11)" gradientUnits="userSpaceOnUse"><stop offset="0" stop-color="#fc5880"/><stop offset="1" stop-color="#feb7cb"/></linearGradient><linearGradient id="l" x1="57.73" y1="512.1" x2="405.71" y2="512.1" gradientTransform="matrix(1, 0, 0, -1, 0, 774)" gradientUnits="userSpaceOnUse"><stop offset="0" stop-color="#fd84a7"/><stop offset="1" stop-color="#fff"/></linearGradient><linearGradient id="m" x1="263.06" y1="312.93" x2="228.06" y2="413.93" gradientTransform="matrix(1, 0, 0, -1, 1047.97, 1378.11)" gradientUnits="userSpaceOnUse"><stop offset="0" stop-color="#aaedfe"/><stop offset="1" stop-color="#aaedfe" stop-opacity="0"/></linearGradient><linearGradient id="n" x1="151.12" y1="314.44" x2="586.97" y2="314.44" gradientTransform="matrix(1, 0, 0, -1, 0, 774)" gradientUnits="userSpaceOnUse"><stop offset="0" stop-color="#1e63fb"/><stop offset="1" stop-color="#97b9fd"/></linearGradient><linearGradient id="o" x1="596.93" y1="406.34" x2="128.59" y2="406.34" gradientTransform="matrix(1, 0, 0, -1, 0, 774)" gradientUnits="userSpaceOnUse"><stop offset="0" stop-color="#c0d5fd"/><stop offset="1" stop-color="#4d84fa"/></linearGradient><radialGradient id="p" cx="355.99" cy="723.16" r="455.15" gradientTransform="matrix(1, 0, 0, -1.27, 0, 954.53)" gradientUnits="userSpaceOnUse"><stop offset="0.87" stop-color="#aaedfe" stop-opacity="0"/><stop offset="1" stop-color="#aaedfe"/></radialGradient></defs><title>wb-feature-insights</title><path d="M707.9-30H-22.9L43,469.2h0c4.6,40.9,34.5,81.1,89.8,112.4,120,67.9,313.9,67.9,433.1,0,52.9-30.1,82.1-68.5,87.9-107.9h0Z" transform="translate(1047.97 604.11)" style="opacity:0.07999999821186066;isolation:isolate;fill:url(#a)"/><rect x="1126.17" y="1050.91" width="89.4" height="327.5" style="opacity:0.1899999976158142;isolation:isolate;fill:url(#b)"/><path d="M569,774.3c25.3-23.9,37.9-51.1,37.8-78.2h0V446.8H167.6s0.1,323.5.6,327.5H569ZM154.2,658.1h0Z" transform="translate(1047.97 604.11)" style="opacity:0.23999999463558197;isolation:isolate;fill:url(#c)"/><path d="M685.5-1H0L61.8,467.3h0c4.3,38.4,32.4,76.1,84.2,105.4,112.6,63.7,294.5,63.7,406.3,0,49.6-28.3,77-64.3,82.5-101.2h0Z" transform="translate(1047.97 604.11)" style="opacity:0.10000000149011612;isolation:isolate;fill:url(#d)"/><path d="M651,1H36L72,460.1h0c4.2,37.6,31.1,74.6,80.9,103.3,108.2,62.5,283,62.5,390.5,0,47.7-27.7,74-63,79.3-99.2h0Z" transform="translate(1047.97 604.11)" style="opacity:0.11999999731779099;isolation:isolate;fill:url(#e)"/><path d="M-575-489.4c-106-102.9-192.8-166.2-221.7-59.4-46.5,172.1-10,276.1-134.4,284S-1105.3-115.3-955.5-5.5C-798.1,109.9-618.9,223.9-398.8,86-196.6-40.7-59.9-194.8-280.9-247.6-440.2-285.6-458.2-376-575-489.4Z" transform="translate(1047.97 604.11)" style="opacity:0.10000000149011612;isolation:isolate;fill:url(#f)"/><path d="M606.8,354.9c0.1-38.4-25.2-77-76-106.3L349.2,354.1l-13.3,7.8V287.4h0L245.2,147.5c-33.6,7.2-65.1,18.7-92.1,34.4-50.7,29.5-75.6,68.2-74.8,106.8V441.2h0c0,38.3,25.4,76.7,76,105.9l13.3,13.3h0c100.9,58.3,264.1,58.3,364.3,0,49.6-28.8,74.5-66.6,74.8-104.4h0l0.1-101.1h0ZM154.2,393h0Z" transform="translate(1047.97 604.11)" style="fill:#2ccdfd;opacity:0.05000000074505806;isolation:isolate"/><path d="M167.6,552.2h0Z" transform="translate(1047.97 604.11)" style="fill:none"/><path d="M167.6,552.2h0Z" transform="translate(1047.97 604.11)" style="fill:#fff200"/><rect x="1390.47" y="647.81" width="181.6" height="320.6" style="fill:url(#g)"/><rect x="1299.77" y="613.41" width="90.7" height="355" style="fill:url(#h)"/><path d="M524.1,43.7L342.5,149.2,251.8,9.3C343.2-10.4,450.3,1.1,524.1,43.7Z" transform="translate(1047.97 604.11)" style="fill:url(#i)"/><path d="M153.1,226.9c-26.4,15.3-45.8,33.1-58.2,52.2H78.2V432.9h0c0,38.3,25.4,76.7,76,105.9V226.3A10.91,10.91,0,0,1,153.1,226.9Z" transform="translate(1047.97 604.11)" style="fill:url(#j)"/><polygon points="1383.77 883.21 1202.17 988.71 1202.17 1142.91 1383.77 1038.21 1383.77 883.21" style="fill:url(#k)"/><path d="M153.1,173.6c27-15.7,58.4-27.1,92.1-34.4l90.7,139.9L154.2,384.6C53.3,326.3,52.8,231.9,153.1,173.6Z" transform="translate(1047.97 604.11)" style="fill:url(#l)"/><g style="opacity:0.5"><polygon points="1383.77 883.21 1202.17 988.71 1202.17 1142.91 1383.77 1038.21 1383.77 883.21" style="fill:url(#m)"/></g><path d="M556.6,346.6v12a216.2,216.2,0,0,0-25.9-17.4l-142.6-18L167.6,451.4V552.2h0c100.9,58.3,264.1,58.3,364.3,0,49.6-28.8,74.5-66.6,74.8-104.4h0V346.6H556.6Z" transform="translate(1047.97 604.11)" style="fill:url(#n)"/><path d="M530.7,240.3c100.9,58.3,101.5,152.8,1.2,211s-263.4,58.3-364.3,0L349.2,345.8Z" transform="translate(1047.97 604.11)" style="fill:url(#o)"/><path d="M606.8,346.6h0c0.1-38.4-25.2-77-76.1-106.3l-6.7,3.9V43.7C450.3,1.1,343.2-10.4,251.8,9.3V149.5l-6.7-10.3c-33.6,7.2-65.1,18.7-92.1,34.4-50.7,29.5-75.6,68.2-74.8,106.8V441.2h0c0,38.3,25.4,76.7,76,105.9l13.3,13.3h0c100.9,58.3,264.1,58.3,364.3,0,49.6-28.8,74.5-66.6,74.8-104.4h0v-8.3h0V346.6h0.2Z" transform="translate(1047.97 604.11)" style="opacity:0.38999998569488525;isolation:isolate;fill:url(#p)"/></svg>