<svg xmlns="http://www.w3.org/2000/svg" xmlns:xlink="http://www.w3.org/1999/xlink" viewBox="0 0 504.2 489.7"><defs><linearGradient id="a" x1="124.95" y1="366.9" x2="124.95" y2="306.03" gradientTransform="matrix(1, 0, 0, -1, 37, 409.7)" gradientUnits="userSpaceOnUse"><stop offset="0" stop-color="#feb7cb"/><stop offset="1" stop-color="#fd759c"/></linearGradient><linearGradient id="b" x1="396.6" y1="185.85" x2="467.2" y2="185.85" xlink:href="#a"/><linearGradient id="c" x1="206.65" y1="213.2" x2="206.65" y2="94.9" xlink:href="#a"/><linearGradient id="d" x1="348.45" y1="8.2" x2="348.45" y2="-69.01" gradientTransform="matrix(1, 0, 0, -1, 37, 409.7)" gradientUnits="userSpaceOnUse"><stop offset="0" stop-color="#c1fed6"/><stop offset="1" stop-color="#3eb596"/></linearGradient><linearGradient id="e" x1="278.25" y1="409.7" x2="278.25" y2="332.49" xlink:href="#d"/><linearGradient id="f" x1="-16.15" y1="163.6" x2="-16.15" y2="102.99" xlink:href="#d"/><linearGradient id="g" x1="53.15" y1="-6.2" x2="53.15" y2="-79.88" xlink:href="#a"/><linearGradient id="h" x1="19.85" y1="391.3" x2="19.85" y2="313.92" xlink:href="#a"/><linearGradient id="i" x1="70.15" y1="254.4" x2="70.15" y2="172.1" xlink:href="#d"/><linearGradient id="j" x1="193.95" y1="-24.08" x2="193.95" y2="411.5" gradientTransform="matrix(1, 0, 0, -1, 37, 409.7)" gradientUnits="userSpaceOnUse"><stop offset="0" stop-color="#97b9fd"/><stop offset="1" stop-color="#dfeafe"/></linearGradient><linearGradient id="k" x1="60" y1="411.98" x2="379.7" y2="411.98" gradientTransform="translate(37 -153.9)" gradientUnits="userSpaceOnUse"><stop offset="0" stop-color="#dbdfe6"/><stop offset="1" stop-color="#fff"/></linearGradient><linearGradient id="l" x1="208.95" y1="628.43" x2="208.95" y2="273.08" gradientTransform="translate(37 -153.9)" gradientUnits="userSpaceOnUse"><stop offset="0" stop-color="#293e69" stop-opacity="0"/><stop offset="1" stop-color="#132858"/></linearGradient><linearGradient id="m" x1="421.84" y1="505.91" x2="426.79" y2="500.96" gradientTransform="translate(37 -153.9)" gradientUnits="userSpaceOnUse"><stop offset="0" stop-color="#fd759c"/><stop offset="1" stop-color="#fd84a7"/></linearGradient><linearGradient id="n" x1="428.45" y1="542.11" x2="428.45" y2="533.33" gradientTransform="translate(37 -153.9)" gradientUnits="userSpaceOnUse"><stop offset="0" stop-color="#feb7cb"/><stop offset="1" stop-color="#fc5880"/></linearGradient><linearGradient id="o" x1="409.05" y1="540.68" x2="409.05" y2="534.38" gradientTransform="translate(37 -153.9)" gradientUnits="userSpaceOnUse"><stop offset="0" stop-color="#fc5880"/><stop offset="1" stop-color="#fc3768"/></linearGradient><linearGradient id="p" x1="330.55" y1="463.32" x2="323.31" y2="476.52" gradientTransform="translate(37 -153.9)" gradientUnits="userSpaceOnUse"><stop offset="0" stop-color="#c3c9d4"/><stop offset="0.27" stop-color="#dbdfe6"/><stop offset="1" stop-color="#7c87a3"/></linearGradient><linearGradient id="q" x1="426.91" y1="515.88" x2="419.43" y2="529.21" gradientTransform="translate(37 -153.9)" gradientUnits="userSpaceOnUse"><stop offset="0" stop-color="#293e69"/><stop offset="0.25" stop-color="#4d5e81"/><stop offset="1" stop-color="#132858"/></linearGradient><linearGradient id="r" x1="415.93" y1="500.01" x2="410.68" y2="508.41" xlink:href="#o"/><linearGradient id="s" x1="417.61" y1="510.69" x2="396.8" y2="489.88" xlink:href="#n"/><linearGradient id="t" x1="421.27" y1="534.7" x2="396.07" y2="520.3" xlink:href="#n"/><linearGradient id="u" x1="404.95" y1="518.91" x2="400.9" y2="526.26" xlink:href="#m"/></defs><title>wb-feature-optimize</title><g style="opacity:0.20000000298023224"><path d="M170.3,42.8a16.47,16.47,0,0,0-8.3,2.5c-11.6,6.7-21,24.6-21,40,0,11.5,5.2,18.3,12.6,18.3a16.47,16.47,0,0,0,8.3-2.5c11.6-6.7,21-24.5,21-40,0-11.4-5.2-18.3-12.6-18.3h0Z" style="fill:url(#a)"/><path d="M482.9,172.6c-4.3,0-9,1.4-14,4.2-19.5,11.3-35.3,41.4-35.3,67.4,0,19.3,8.8,30.9,21.3,30.9,4.3,0,9-1.4,14-4.2,19.5-11.3,35.3-41.4,35.3-67.4,0-19.4-8.8-30.9-21.3-30.9h0Z" style="fill:url(#b)"/><g style="opacity:0.800000011920929"><path d="M259.8,196.5c-5,0-10.4,1.6-16.2,4.9-22.5,12.9-40.6,47.7-40.6,77.8,0,22.3,10.1,35.6,24.5,35.6,5,0,10.4-1.6,16.2-4.9,22.5-12.9,40.6-47.7,40.6-77.8,0-22.2-10.1-35.6-24.5-35.6h0Z" style="fill:url(#c)"/></g><g style="opacity:0.800000011920929"><path d="M396,401.5a20.76,20.76,0,0,0-10.5,3.2c-14.7,8.5-26.6,31.2-26.6,50.8,0,14.6,6.6,23.3,16,23.3a20.76,20.76,0,0,0,10.5-3.2c14.7-8.5,26.6-31.2,26.6-50.8,0-14.6-6.6-23.3-16-23.3h0Z" style="fill:url(#d)"/></g><g style="opacity:0.800000011920929"><path d="M325.8,0a20.76,20.76,0,0,0-10.5,3.2c-14.7,8.5-26.6,31.2-26.6,50.8,0,14.6,6.6,23.3,16,23.3a20.76,20.76,0,0,0,10.5-3.2c14.7-8.5,26.6-31.2,26.6-50.8,0-14.6-6.6-23.3-16-23.3h0Z" style="fill:url(#e)"/></g><g style="opacity:0.800000011920929"><path d="M29.1,246.1a16.42,16.42,0,0,0-8.2,2.5C9.4,255.3,0,273.1,0,288.5c0,11.5,5.2,18.3,12.6,18.3a16.42,16.42,0,0,0,8.2-2.5c11.5-6.7,20.9-24.5,20.9-39.9-0.1-11.5-5.2-18.3-12.6-18.3h0Z" style="fill:url(#f)"/></g><path d="M100.2,415.9a19.62,19.62,0,0,0-10,3.1c-14,8.1-25.4,29.8-25.4,48.5,0,13.9,6.3,22.2,15.3,22.2a19.62,19.62,0,0,0,10-3.1c14-8.1,25.4-29.8,25.4-48.5,0-13.9-6.3-22.2-15.3-22.2h0Z" style="fill:url(#g)"/><path d="M67.3,18.4a20.76,20.76,0,0,0-10.5,3.2C42,30.2,30.2,52.9,30.2,72.5c0,14.7,6.6,23.4,16.1,23.4a20.76,20.76,0,0,0,10.5-3.2c14.7-8.6,26.7-31.3,26.7-50.9-0.2-14.7-6.7-23.4-16.2-23.4h0Z" style="fill:url(#h)"/><g style="opacity:0.800000011920929"><path d="M118.4,155.3a22.78,22.78,0,0,0-11.2,3.4c-15.7,9.1-28.4,33.3-28.4,54.1,0,15.6,7,24.8,17.1,24.8a22.78,22.78,0,0,0,11.2-3.4c15.7-9.1,28.4-33.3,28.4-54.2,0-15.5-7.1-24.7-17.1-24.7h0Z" style="fill:url(#i)"/></g></g><path d="M227.8,334.6" style="fill:none;stroke:#38d687;stroke-miterlimit:10;stroke-width:0.10000000149011612px"/><path d="M236.2,319.8" style="fill:none;stroke:#38d687;stroke-miterlimit:10;stroke-width:0.10000000149011612px"/><path d="M236.2,319.8" style="fill:none;stroke:#38d687;stroke-miterlimit:10;stroke-width:0.10000000149011612px"/><path d="M236.2,319.8" style="fill:none;stroke:#38d687;stroke-miterlimit:10;stroke-width:0.10000000149011612px"/><path d="M364.8,65.8l5.9-2.9L340.3,46.3h0C311.6,32,273,35.2,230.7,59.8,142.2,110.8,70.8,234.4,71.1,336c0.1,49.9,17.6,85.1,45.7,102.1h-0.1l30.6,16.7,2.5-5.9c23.9,2.5,51.8-4.1,81.6-21.4,88.4-50.9,159.8-174.6,159.4-276.1C390.9,114.1,381.3,85.2,364.8,65.8Z" style="fill:url(#j)"/><path d="M256.3,74.3C168,125.3,96.6,248.8,97,350.4c0.3,101.4,72.1,142.4,160.4,91.4S417,267.2,416.7,165.8,344.6,23.4,256.3,74.3Z" style="fill:url(#k)"/><path d="M239.2,290.6a19.85,19.85,0,0,0,2.6.9,15,15,0,0,0,3.7.4,20.14,20.14,0,0,0,5.7-1c0.6-.2,1.3-0.5,2-0.7a33.66,33.66,0,0,0,3.8-1.9c14.5-8.4,26.3-28.8,26.3-45.5,0-12-6.1-18.8-15-18.6a21.76,21.76,0,0,0-5.4.9,6.94,6.94,0,0,0-1.3.5c-1.1.4-2.2,0.9-3.3,1.4h-0.1c-0.4.3-.9,0.4-1.3,0.7a42,42,0,0,0-9,7h0c-10.1,10.1-17.3,25.4-17.2,38.4C230.5,282.1,233.9,288.2,239.2,290.6Z" style="fill:#fd759c"/><path d="M256.4,110.3c71-40.9,128.7-8.1,129,73.4S328.3,364.6,257.3,405.6s-128.7,8.1-129-73.4S185.4,151.4,256.4,110.3ZM257.2,391C321,354.2,372.8,264.6,372.6,191.2s-52.3-103-116.1-66.1S140.8,251.5,141.1,324.9s52.3,103,116.1,66.1" style="fill:#fd759c"/><path d="M256.5,139.7c56.8-32.8,103.1-6.4,103.3,58.9s-45.9,145-102.7,177.8S154,382.8,153.8,317.5,199.7,172.5,256.5,139.7Zm0.6,222C306.9,333,347.2,263.1,347,206s-40.8-80.3-90.5-51.6S166.4,253,166.6,310.1s40.7,80.3,90.5,51.6" style="fill:#fd759c"/><path d="M256.7,198.4c28.6-16.6,51.9-3.2,52,29.7s-23.1,73.1-51.8,89.5-51.9,3.2-52-29.7S228,214.9,256.7,198.4Zm0.2,104.5c21.6-12.4,39.1-42.8,39-67.5s-17.6-34.8-39.2-22.3-39.1,42.8-39,67.5,17.6,34.8,39.2,22.3" style="fill:#fd759c"/><path d="M256.6,169.1c42.7-24.7,77.6-4.8,77.7,44.3s-34.5,109-77.2,133.7-77.6,4.8-77.7-44.3S213.8,193.7,256.6,169.1ZM257,332.4c35.6-20.6,64.5-70.6,64.4-111.6s-29.2-57.5-64.9-37S192,254.4,192.1,295.4s29.3,57.5,64.9,37" style="fill:#fd759c"/><polygon points="222.6 457.5 255.8 258.2 269.3 260.4 237.4 451.8 230.4 454.7 222.6 457.5" style="opacity:0.30000001192092896;isolation:isolate;fill:url(#l)"/><path d="M479.1,361.8h0c-1.7,2.8-3.8,4.2-5.2,7.5v2.2a15,15,0,0,1,1.3-1.1c1.9-1.8,4-4.1,4-6.8v-2.2C479.1,361.4,479.1,361.6,479.1,361.8Z" style="fill:#feb7cb"/><path d="M474.1,354.9c6,3.4,7.4,8.1-.3,14.4l-41-23.7C447.5,347.4,465.5,349.9,474.1,354.9Z" style="fill:url(#m)"/><path d="M479.1,361.8h0Z" style="fill:#1545b0"/><polygon points="432.8 345.6 432.8 347.8 473.8 371.4 473.8 369.3 432.8 345.6" style="fill:#103587"/><path d="M468.5,378.8h0l-1.9,1.1c-2,2.8-1.4,6.8-4.2,8.6l1.9-1.1c2.3-1.4,3.4-4.4,4-6.8h0a9,9,0,0,1,.2-1.8h0Z" style="fill:url(#n)"/><path d="M425.6,356.2c8.8,11.8,20.1,26.1,28.6,31.1,6,3.4,10.7,2.3,12.3-7.4Z" style="fill:url(#o)"/><polygon points="427.5 355.1 425.6 356.2 466.6 379.9 468.5 378.8 427.5 355.1" style="fill:#1a55d8"/><path d="M262,252.2h0a3.25,3.25,0,0,0-1.4-.4,4.25,4.25,0,0,0-1.1.2c-0.1,0-.2.1-0.3,0.1-0.3.1-.4,0.2-0.7,0.3h0c-0.1.1-.2,0.1-0.3,0.2a23.07,23.07,0,0,0-1.9,1.4h0a11.9,11.9,0,0,0-3.5,7.9c0,1.7.6,3,1.6,3.5h0l215,117.2,7.5-13.3Z" style="fill:url(#p)"/><path d="M454.7,357.2h0a2.5,2.5,0,0,0-1.4-.4,4.25,4.25,0,0,0-1.1.2c-0.1,0-.2.1-0.3,0.1a4.88,4.88,0,0,0-.7.3h0c-0.1.1-.2,0.1-0.3,0.2A23.07,23.07,0,0,0,449,359h0a11.9,11.9,0,0,0-3.5,7.9c0,1.8.7,3.1,1.8,3.6l22.1,12.1,7.5-13.3Z" style="fill:url(#q)"/><path d="M469.4,382.7a1.69,1.69,0,0,0,.5.2,2,2,0,0,0,.7.1,6,6,0,0,0,1.2-.2,0.76,0.76,0,0,0,.4-0.2c0.3-.1.5-0.3,0.8-0.4a11.85,11.85,0,0,0,5.4-9.4c0-2.4-1.3-3.9-3.1-3.9a4.25,4.25,0,0,0-1.1.2c-0.1,0-.2.1-0.3,0.1-0.3.1-.4,0.2-0.7,0.3h0c-0.1.1-.2,0.1-0.3,0.2a23.07,23.07,0,0,0-1.9,1.4h0a11.9,11.9,0,0,0-3.5,7.9C467.6,380.9,468.3,382.1,469.4,382.7Z" style="fill:#293e69"/><path d="M455.2,346c6,3.4,10.6,10,12.2,21.6l-41-23.7C435.3,342.3,446.6,341,455.2,346Z" style="fill:url(#r)"/><path d="M467,357h0a21.9,21.9,0,0,0-3.9-6.8h0a20.49,20.49,0,0,0-6.1-5.3c-8.6-5-19.4-3.7-28.7-2.1l-1.9,1.1,3.8-.6c8.2-1.3,17.5-1.6,24.9,2.7,0.7,0.4,1.4.9,2.2,1.4a21.07,21.07,0,0,1,4,3.9h0c3.7,4.7,5.4,10.5,6.1,16.3l1.9-1.1A37.71,37.71,0,0,0,467,357Z" style="fill:url(#s)"/><path d="M453.9,380.4h0a22.74,22.74,0,0,1-7.8.1h0a22.1,22.1,0,0,1-7.6-2.6c-8.6-4.9-13-14.9-16.1-23.8v-2.2c0.5,1.2,35.6,25.9,41,23.7v2.2A42,42,0,0,1,453.9,380.4Z" style="fill:url(#t)"/><path d="M438.4,375.7c6,3.4,13.9,4.2,24.8-.2l-41-23.7C425.3,360.4,429.8,370.8,438.4,375.7Z" style="fill:url(#u)"/></svg>