<?xml version="1.0" encoding="utf-8"?>
<!-- Generator: Adobe Illustrator 19.0.0, SVG Export Plug-In . SVG Version: 6.00 Build 0)  -->
<svg version="1.1" id="Layer_1" xmlns="http://www.w3.org/2000/svg" xmlns:xlink="http://www.w3.org/1999/xlink" x="0px" y="0px"
	 viewBox="1475 -325.2 3000 691.2" style="enable-background:new 1475 -325.2 3000 691.2;" xml:space="preserve" preserveAspectRatio="none">
<style type="text/css">
	.st0{opacity:0.18;fill:#C0D5FD;enable-background:new    ;}
	.st1{fill:url(#SVGID_1_);}
	.st2{fill:url(#SVGID_2_);}
</style>
<path class="st0" d="M2754.8,290.4c634.5-38.3,1023.1-317.8,1720.2-32.8v-582.8H1475V-9.4C1818.7,188.6,2154.7,326.6,2754.8,290.4z"
	/>
<linearGradient id="SVGID_1_" gradientUnits="userSpaceOnUse" x1="2975" y1="199.097" x2="2975" y2="-288.903" gradientTransform="matrix(1 0 0 -1 0 49.6)">
	<stop  offset="0.1943" style="stop-color:#EDF4FF"/>
	<stop  offset="1" style="stop-color:#EDF4FF;stop-opacity:0"/>
</linearGradient>
<rect x="1475" y="-325.2" class="st1" width="3000" height="691.2"/>
<path class="st0" d="M2754.8,149.4c634.5-38.3,1023.1-317.8,1720.2-32.8v-441.8H1475v174.8C1818.7,47.6,2154.7,185.6,2754.8,149.4z"
	/>
<linearGradient id="SVGID_2_" gradientUnits="userSpaceOnUse" x1="6825" y1="1112.4459" x2="9825" y2="1112.4459" gradientTransform="matrix(-1 0 0 1 11300 -1261.9543)">
	<stop  offset="0" style="stop-color:#143068"/>
	<stop  offset="1" style="stop-color:#132858"/>
</linearGradient>
<path class="st2" d="M2754.8,20.4C3389.3-17.9,3777.9-297.4,4475-12.4v-312.8H1475v45.8C1818.7-81.4,2154.7,56.6,2754.8,20.4z"/>
</svg>
